<?xml version="1.0" encoding="utf-8"?>
<!-- Generator: Adobe Illustrator 17.0.0, SVG Export Plug-In . SVG Version: 6.00 Build 0)  -->
<!DOCTYPE svg PUBLIC "-//W3C//DTD SVG 1.1//EN" "http://www.w3.org/Graphics/SVG/1.1/DTD/svg11.dtd">
<svg version="1.1" id="Layer_1" xmlns="http://www.w3.org/2000/svg" xmlns:xlink="http://www.w3.org/1999/xlink" x="0px" y="0px"
	 width="121.072px" height="38.333px" viewBox="0 0 121.072 38.333" enable-background="new 0 0 121.072 38.333"
	 xml:space="preserve">
<g>
	<path fill="#59595B" d="M593.301,245.326h3.013c0.197,0,0.358-0.162,0.358-0.352c0-0.199-0.161-0.36-0.358-0.36h-3.013
		c-0.191,0-0.355,0.161-0.355,0.36C592.946,245.163,593.11,245.326,593.301,245.326z M594.807,271.729
		c-0.862,0-1.565,0.705-1.565,1.57c0,0.863,0.703,1.566,1.565,1.566c0.866,0,1.567-0.703,1.567-1.566
		C596.375,272.434,595.674,271.729,594.807,271.729z M636.42,262.918c-0.729,0-1.387,0.24-1.982,0.724
		c-0.595,0.49-0.981,1.124-1.164,1.909c-0.09,0.367-0.135,0.666-0.135,0.904v2.215c0,0.969,0.291,1.787,0.888,2.453
		c0.592,0.66,1.364,0.995,2.312,0.995c1.11,0,1.983-0.426,2.602-1.286c0.62-0.857,0.928-1.988,0.928-3.397
		c0-1.292-0.288-2.361-0.873-3.198C638.354,263.365,637.498,262.918,636.42,262.918z M690.342,262.735
		c-1.183,0-2.087,0.525-2.704,1.582c-0.535,0.87-0.797,1.932-0.797,3.188c0,1.224,0.262,2.268,0.797,3.14
		c0.633,1.055,1.527,1.58,2.683,1.58c1.124,0,2.013-0.532,2.647-1.613c0.552-0.883,0.826-1.941,0.826-3.158s-0.264-2.267-0.79-3.137
		C692.376,263.26,691.494,262.735,690.342,262.735z M651.039,262.918c-0.732,0-1.387,0.24-1.982,0.724
		c-0.593,0.49-0.982,1.124-1.166,1.909c-0.091,0.367-0.134,0.666-0.134,0.904v2.215c0,0.969,0.292,1.787,0.888,2.453
		c0.592,0.66,1.364,0.995,2.309,0.995c1.119,0,1.984-0.426,2.605-1.286c0.622-0.857,0.934-1.988,0.934-3.397
		c0-1.292-0.294-2.361-0.876-3.198C652.972,263.365,652.114,262.918,651.039,262.918z M620.492,258.16h-0.052
		c-0.186,0.785-0.474,1.941-0.879,3.477l-1.533,4.818h4.953l-1.554-4.818C621.259,261.141,620.946,259.982,620.492,258.16z
		 M712.762,262.59c-0.965,0-1.749,0.412-2.354,1.21c-0.492,0.637-0.787,1.404-0.876,2.294h6.158c0.016-0.873-0.172-1.627-0.572-2.27
		C714.605,263.007,713.819,262.59,712.762,262.59z M633.529,249.462c0.041-0.127,0.041-0.254,0.041-0.381v-0.941
		c-1.224-0.014-2.391,0.238-2.391,1.279c0,0.676,0.436,0.986,0.984,0.986C632.867,250.406,633.359,249.954,633.529,249.462z
		 M617.398,245.157c-0.184-0.577-0.338-1.224-0.479-1.772h-0.029c-0.14,0.549-0.295,1.209-0.45,1.772l-0.731,2.336h2.434
		L617.398,245.157z M724.73,231.351H579.059c-3.707,0-6.724,3.016-6.724,6.725v41.862c0,3.703,3.017,6.715,6.724,6.715H724.73
		c3.708,0,6.725-3.012,6.725-6.715v-41.862C731.455,234.367,728.438,231.351,724.73,231.351z M715.492,244.482
		c2.223,0,2.955,1.828,2.955,3.334c0,0.324-0.028,0.578-0.057,0.732h-4.587c0.042,1.237,0.999,1.771,2.11,1.771
		c0.802,0,1.365-0.125,1.899-0.309l0.253,1.182c-0.591,0.253-1.406,0.436-2.392,0.436c-2.223,0-3.531-1.363-3.531-3.46
		C712.143,246.268,713.297,244.482,715.492,244.482z M688.031,244.636l0.084,1.027h0.043c0.309-0.535,1.055-1.182,2.194-1.182
		c1.196,0,2.434,0.773,2.434,2.939v4.066h-1.73v-3.869c0-0.984-0.366-1.73-1.309-1.73c-0.689,0-1.168,0.492-1.352,1.014
		c-0.057,0.141-0.084,0.352-0.084,0.549v4.037h-1.73v-4.811c0-0.789-0.028-1.449-0.057-2.041H688.031z M669.858,244.482
		c2.223,0,2.955,1.828,2.955,3.334c0,0.324-0.028,0.578-0.057,0.732h-4.587c0.042,1.237,0.999,1.771,2.11,1.771
		c0.802,0,1.364-0.125,1.899-0.309l0.253,1.182c-0.591,0.253-1.406,0.436-2.392,0.436c-2.223,0-3.531-1.363-3.531-3.46
		C666.509,246.268,667.663,244.482,669.858,244.482z M662.765,241.499h1.729v9.988h-1.729V241.499z M649.041,245.704
		c-0.676,0-1.379,0.213-1.843,0.508l-0.338-1.126c0.506-0.309,1.393-0.604,2.476-0.604c2.195,0,2.829,1.393,2.829,2.897v2.463
		c0,0.619,0.027,1.224,0.111,1.646h-1.562l-0.126-0.759h-0.042c-0.408,0.534-1.126,0.915-2.026,0.915c-1.38,0-2.153-1-2.153-2.041
		c0-1.717,1.533-2.604,4.066-2.589v-0.112C650.433,246.452,650.25,245.704,649.041,245.704z M638.808,241.78
		c0.591,0,0.957,0.409,0.971,0.942c0,0.507-0.38,0.93-0.985,0.93c-0.577,0-0.956-0.423-0.956-0.93
		C637.838,242.189,638.231,241.78,638.808,241.78z M639.666,244.636v6.852h-1.729v-6.852H639.666z M615.864,242.005h2.209
		l3.081,9.482h-1.871l-0.857-2.688h-2.998l-0.816,2.688h-1.787L615.864,242.005z M604.34,273.451c0,1.671-1.362,3.025-3.032,3.025
		h-12.995c-1.672,0-3.034-1.354-3.034-3.025v-28.877c0-1.671,1.362-3.029,3.034-3.029h12.995c1.67,0,3.032,1.358,3.032,3.029
		V273.451z M625.228,274.144l-1.723-5.415h-5.996l-1.644,5.415h-3.062l5.935-18.448h3.672l5.97,18.448H625.228z M625.9,251.488
		h-1.703l-2.547-6.852h1.872l1.11,3.476c0.197,0.605,0.338,1.153,0.465,1.717h0.043c0.126-0.563,0.281-1.099,0.464-1.717
		l1.098-3.476h1.815L625.9,251.488z M629.463,249.603c0-1.717,1.533-2.604,4.066-2.589v-0.112c0-0.45-0.184-1.197-1.393-1.197
		c-0.676,0-1.378,0.213-1.843,0.508l-0.338-1.126c0.506-0.309,1.393-0.604,2.477-0.604c2.194,0,2.828,1.393,2.828,2.897v2.463
		c0,0.619,0.027,1.224,0.112,1.646h-1.562l-0.126-0.759h-0.042c-0.408,0.534-1.126,0.915-2.026,0.915
		C630.236,251.644,629.463,250.644,629.463,249.603z M641.037,272.698c-1.099,1.163-2.469,1.747-4.1,1.747
		c-1.766,0-3.029-0.628-3.798-1.892v6.986h-2.954v-14.327c0-1.423-0.038-2.878-0.113-4.372h2.601l0.163,2.108h0.052
		c0.99-1.582,2.484-2.375,4.494-2.375c1.569,0,2.875,0.615,3.931,1.859c1.046,1.238,1.572,2.875,1.572,4.898
		C642.884,269.6,642.27,271.381,641.037,272.698z M644.113,251.488h-1.729v-9.988h1.729V251.488z M655.652,272.698
		c-1.102,1.163-2.466,1.747-4.101,1.747c-1.761,0-3.026-0.628-3.795-1.892v6.986h-2.957v-14.327c0-1.423-0.038-2.878-0.109-4.372
		h2.594l0.171,2.108h0.051c0.992-1.582,2.483-2.375,4.49-2.375c1.57,0,2.88,0.615,3.929,1.859c1.052,1.238,1.575,2.875,1.575,4.898
		C657.5,269.6,656.885,271.381,655.652,272.698z M657.682,251.644c-0.887,0-1.675-0.338-2.167-1.183h-0.028l-0.084,1.026h-1.478
		c0.028-0.464,0.057-1.223,0.057-1.928v-8.061h1.729v4.079h0.028c0.422-0.661,1.168-1.097,2.195-1.097
		c1.675,0,2.87,1.393,2.856,3.475C660.792,250.419,659.23,251.644,657.682,251.644z M672.562,272.801
		c-1.208,1.078-2.881,1.613-5.027,1.613c-1.989,0-3.58-0.385-4.781-1.147l0.687-2.463c1.295,0.763,2.717,1.149,4.265,1.149
		c1.118,0,1.982-0.254,2.604-0.752c0.617-0.5,0.928-1.17,0.928-2.02c0-0.738-0.256-1.368-0.764-1.882
		c-0.516-0.511-1.357-0.981-2.545-1.423c-3.227-1.201-4.843-2.963-4.843-5.279c0-1.515,0.564-2.759,1.706-3.725
		c1.141-0.965,2.65-1.449,4.532-1.449c1.678,0,3.074,0.294,4.189,0.874l-0.746,2.409c-1.04-0.563-2.222-0.85-3.54-0.85
		c-1.042,0-1.859,0.265-2.447,0.764c-0.491,0.463-0.738,1.02-0.738,1.675c0,0.725,0.283,1.329,0.848,1.811
		c0.494,0.435,1.389,0.908,2.68,1.418c1.593,0.634,2.757,1.387,3.508,2.247c0.746,0.857,1.122,1.923,1.122,3.198
		C674.198,270.539,673.649,271.821,672.562,272.801z M682.983,263.055h-3.263v6.467c0,1.641,0.579,2.455,1.73,2.455
		c0.529,0,0.963-0.039,1.312-0.129l0.084,2.239c-0.585,0.219-1.35,0.329-2.299,0.329c-1.162,0-2.081-0.351-2.735-1.067
		c-0.663-0.708-0.99-1.905-0.99-3.584v-6.71h-1.941v-2.215h1.941v-2.434l2.898-0.876v3.31h3.263V263.055z M681.316,251.644
		c-1.928,0-3.434-1.324-3.434-3.532c0-2.251,1.478-3.63,3.546-3.63c2.04,0,3.405,1.436,3.405,3.518
		C684.834,250.518,683.06,251.644,681.316,251.644z M695.111,272.424c-1.227,1.347-2.851,2.021-4.871,2.021
		c-1.956,0-3.517-0.647-4.674-1.942c-1.157-1.293-1.734-2.933-1.734-4.9c0-2.061,0.596-3.75,1.791-5.062
		c1.197-1.318,2.803-1.967,4.828-1.967c1.96,0,3.527,0.642,4.714,1.943c1.128,1.252,1.694,2.881,1.694,4.868
		C696.859,269.434,696.279,271.106,695.111,272.424z M698.166,244.636h0.971v-1.281l1.703-0.479v1.76h1.646v1.294h-1.646v3.025
		c0,0.845,0.225,1.267,0.886,1.267c0.31,0,0.479-0.015,0.676-0.07l0.028,1.309c-0.254,0.098-0.718,0.184-1.252,0.184
		c-0.648,0-1.169-0.212-1.492-0.563c-0.38-0.394-0.549-1.027-0.549-1.928v-3.223h-0.971V244.636z M705.753,263.44
		c-0.291-0.053-0.604-0.075-0.931-0.075c-1.04,0-1.841,0.393-2.408,1.175c-0.494,0.695-0.739,1.559-0.739,2.625v6.979h-2.956v-9.119
		c0-1.524-0.026-2.921-0.079-4.185h2.572l0.11,2.547h0.081c0.309-0.873,0.799-1.578,1.478-2.103c0.657-0.479,1.372-0.71,2.138-0.71
		c0.271,0,0.519,0.015,0.734,0.05V263.44z M706.202,247.379v4.108h-1.729v-9.988h1.729v4.065h0.028
		c0.211-0.323,0.507-0.591,0.858-0.773c0.352-0.198,0.76-0.31,1.196-0.31c1.168,0,2.393,0.773,2.393,2.969v4.037h-1.732v-3.855
		c0-0.985-0.366-1.745-1.322-1.745c-0.676,0-1.154,0.451-1.351,0.971C706.216,247.014,706.202,247.197,706.202,247.379z
		 M718.403,268.209h-8.87c0.035,1.312,0.464,2.312,1.288,3.005c0.746,0.622,1.712,0.933,2.899,0.933
		c1.316,0,2.509-0.209,3.586-0.635l0.466,2.056c-1.255,0.552-2.745,0.819-4.465,0.819c-2.058,0-3.678-0.603-4.854-1.816
		c-1.176-1.213-1.77-2.842-1.77-4.884c0-2.011,0.551-3.677,1.643-5.015c1.155-1.422,2.706-2.132,4.655-2.132
		c1.922,0,3.37,0.71,4.353,2.132c0.782,1.135,1.177,2.532,1.177,4.193C718.51,267.391,718.472,267.838,718.403,268.209z
		 M657.302,245.831c-0.703,0-1.351,0.508-1.533,1.267c-0.029,0.127-0.058,0.281-0.058,0.45v1.111c0,0.141,0.015,0.282,0.043,0.409
		c0.183,0.702,0.788,1.21,1.533,1.21c1.084,0,1.745-0.859,1.745-2.251C659.033,246.818,658.456,245.831,657.302,245.831z
		 M669.759,245.663c-1.069,0-1.519,0.971-1.59,1.674h3.011C671.194,246.704,670.913,245.663,669.759,245.663z M681.386,245.734
		c-1.225,0-1.717,1.195-1.717,2.335c0,1.323,0.661,2.322,1.703,2.322c0.984,0,1.674-0.957,1.674-2.35
		C683.047,246.972,682.568,245.734,681.386,245.734z M648.084,249.419c0,0.676,0.436,0.986,0.984,0.986
		c0.704,0,1.196-0.451,1.365-0.943c0.042-0.127,0.042-0.254,0.042-0.381v-0.941C649.252,248.126,648.084,248.378,648.084,249.419z
		 M715.393,245.663c-1.069,0-1.519,0.971-1.59,1.674h3.011C716.829,246.704,716.547,245.663,715.393,245.663z"/>
</g>
<g>
	<g>
		<path fill="#59595B" d="M594.807,191.38c-0.862,0-1.565,0.705-1.565,1.57c0,0.863,0.703,1.566,1.565,1.566
			c0.866,0,1.567-0.703,1.567-1.566C596.375,192.085,595.674,191.38,594.807,191.38z M587.121,190.037h15.376v-22.741h-15.376
			V190.037z M636.42,182.569c-0.729,0-1.387,0.24-1.982,0.724c-0.595,0.49-0.981,1.124-1.164,1.909
			c-0.09,0.367-0.135,0.666-0.135,0.904v2.215c0,0.969,0.291,1.787,0.888,2.453c0.592,0.66,1.364,0.995,2.312,0.995
			c1.11,0,1.983-0.426,2.602-1.286c0.62-0.857,0.928-1.988,0.928-3.397c0-1.292-0.288-2.361-0.873-3.198
			C638.354,183.015,637.498,182.569,636.42,182.569z M690.342,182.386c-1.183,0-2.087,0.525-2.704,1.582
			c-0.535,0.87-0.797,1.932-0.797,3.188c0,1.224,0.262,2.268,0.797,3.14c0.633,1.055,1.527,1.58,2.683,1.58
			c1.124,0,2.013-0.532,2.647-1.613c0.552-0.883,0.826-1.941,0.826-3.158c0-1.217-0.264-2.267-0.79-3.137
			C692.376,182.911,691.494,182.386,690.342,182.386z M651.039,182.569c-0.732,0-1.387,0.24-1.982,0.724
			c-0.593,0.49-0.982,1.124-1.166,1.909c-0.091,0.367-0.134,0.666-0.134,0.904v2.215c0,0.969,0.292,1.787,0.888,2.453
			c0.592,0.66,1.364,0.995,2.309,0.995c1.119,0,1.984-0.426,2.605-1.286c0.622-0.857,0.934-1.988,0.934-3.397
			c0-1.292-0.294-2.361-0.876-3.198C652.972,183.015,652.114,182.569,651.039,182.569z M620.492,177.811h-0.052
			c-0.186,0.784-0.474,1.941-0.879,3.476l-1.533,4.818h4.953l-1.554-4.818C621.259,180.792,620.946,179.633,620.492,177.811z
			 M712.762,182.241c-0.965,0-1.749,0.412-2.354,1.21c-0.492,0.637-0.787,1.404-0.876,2.294h6.158
			c0.016-0.873-0.172-1.627-0.572-2.27C714.605,182.658,713.819,182.241,712.762,182.241z M633.529,169.113
			c0.041-0.126,0.041-0.253,0.041-0.38v-0.942c-1.224-0.014-2.391,0.239-2.391,1.28c0,0.675,0.436,0.985,0.984,0.985
			C632.867,170.056,633.359,169.606,633.529,169.113z M617.398,164.807c-0.184-0.577-0.338-1.224-0.479-1.772h-0.029
			c-0.14,0.548-0.295,1.209-0.45,1.772l-0.731,2.336h2.434L617.398,164.807z M715.492,164.132c2.223,0,2.955,1.829,2.955,3.335
			c0,0.324-0.028,0.577-0.057,0.731h-4.587c0.042,1.238,0.999,1.773,2.11,1.773c0.802,0,1.365-0.126,1.899-0.31l0.253,1.183
			c-0.591,0.252-1.406,0.436-2.392,0.436c-2.223,0-3.531-1.364-3.531-3.46C712.143,165.919,713.297,164.132,715.492,164.132z
			 M688.031,164.287l0.084,1.027h0.043c0.309-0.535,1.055-1.182,2.194-1.182c1.196,0,2.434,0.774,2.434,2.941v4.066h-1.73v-3.87
			c0-0.984-0.366-1.73-1.309-1.73c-0.689,0-1.168,0.493-1.352,1.013c-0.057,0.141-0.084,0.352-0.084,0.549v4.038h-1.73v-4.812
			c0-0.788-0.028-1.449-0.057-2.041H688.031z M669.858,164.132c2.223,0,2.955,1.829,2.955,3.335c0,0.324-0.028,0.577-0.057,0.731
			h-4.587c0.042,1.238,0.999,1.773,2.11,1.773c0.802,0,1.364-0.126,1.899-0.31l0.253,1.183c-0.591,0.252-1.406,0.436-2.392,0.436
			c-2.223,0-3.531-1.364-3.531-3.46C666.509,165.919,667.663,164.132,669.858,164.132z M662.765,161.15h1.729v9.989h-1.729V161.15z
			 M649.041,165.356c-0.676,0-1.379,0.212-1.843,0.507l-0.338-1.126c0.506-0.31,1.393-0.605,2.476-0.605
			c2.195,0,2.829,1.393,2.829,2.898v2.463c0,0.619,0.027,1.224,0.111,1.646h-1.562l-0.126-0.759h-0.042
			c-0.408,0.534-1.126,0.915-2.026,0.915c-1.38,0-2.153-0.999-2.153-2.04c0-1.717,1.533-2.603,4.066-2.589v-0.113
			C650.433,166.102,650.25,165.356,649.041,165.356z M638.808,161.431c0.591,0,0.957,0.409,0.971,0.943
			c0,0.506-0.38,0.929-0.985,0.929c-0.577,0-0.956-0.422-0.956-0.929C637.838,161.839,638.231,161.431,638.808,161.431z
			 M639.666,164.287v6.852h-1.729v-6.852H639.666z M615.864,161.656h2.209l3.081,9.483h-1.871l-0.857-2.688h-2.998l-0.816,2.688
			h-1.787L615.864,161.656z M604.34,193.101c0,1.671-1.362,3.025-3.032,3.025h-12.995c-1.672,0-3.034-1.354-3.034-3.025v-28.878
			c0-1.67,1.362-3.029,3.034-3.029h12.995c1.67,0,3.032,1.358,3.032,3.029V193.101z M625.228,193.795l-1.723-5.415h-5.996
			l-1.644,5.415h-3.062l5.935-18.448h3.672l5.97,18.448H625.228z M625.9,171.139h-1.703l-2.547-6.852h1.872l1.11,3.476
			c0.197,0.605,0.338,1.154,0.465,1.717h0.043c0.126-0.563,0.281-1.099,0.464-1.717l1.098-3.476h1.815L625.9,171.139z
			 M629.463,169.254c0-1.717,1.533-2.603,4.066-2.589v-0.113c0-0.45-0.184-1.196-1.393-1.196c-0.676,0-1.378,0.212-1.843,0.507
			l-0.338-1.126c0.506-0.31,1.393-0.605,2.477-0.605c2.194,0,2.828,1.393,2.828,2.898v2.463c0,0.619,0.027,1.224,0.112,1.646h-1.562
			l-0.126-0.759h-0.042c-0.408,0.534-1.126,0.915-2.026,0.915C630.236,171.294,629.463,170.295,629.463,169.254z M641.037,192.348
			c-1.099,1.163-2.469,1.747-4.1,1.747c-1.766,0-3.029-0.628-3.798-1.892v6.986h-2.954v-14.327c0-1.423-0.038-2.878-0.113-4.372
			h2.601l0.163,2.107h0.052c0.99-1.582,2.484-2.375,4.494-2.375c1.569,0,2.875,0.615,3.931,1.859
			c1.046,1.238,1.572,2.875,1.572,4.898C642.884,189.251,642.27,191.032,641.037,192.348z M644.113,171.139h-1.729v-9.989h1.729
			V171.139z M655.652,192.348c-1.102,1.163-2.466,1.747-4.101,1.747c-1.761,0-3.026-0.628-3.795-1.892v6.986h-2.957v-14.327
			c0-1.423-0.038-2.878-0.109-4.372h2.594l0.171,2.107h0.051c0.992-1.582,2.483-2.375,4.49-2.375c1.57,0,2.88,0.615,3.929,1.859
			c1.052,1.238,1.575,2.875,1.575,4.898C657.5,189.251,656.885,191.032,655.652,192.348z M657.682,171.294
			c-0.887,0-1.675-0.337-2.167-1.182h-0.028l-0.084,1.027h-1.478c0.028-0.464,0.057-1.224,0.057-1.928v-8.061h1.729v4.08h0.028
			c0.422-0.661,1.168-1.097,2.195-1.097c1.675,0,2.87,1.393,2.856,3.475C660.792,170.07,659.23,171.294,657.682,171.294z
			 M672.562,192.452c-1.208,1.078-2.881,1.613-5.027,1.613c-1.989,0-3.58-0.385-4.781-1.147l0.687-2.463
			c1.295,0.763,2.717,1.149,4.265,1.149c1.118,0,1.982-0.254,2.604-0.752c0.617-0.5,0.928-1.17,0.928-2.02
			c0-0.738-0.256-1.368-0.764-1.882c-0.516-0.511-1.357-0.982-2.545-1.423c-3.227-1.201-4.843-2.963-4.843-5.279
			c0-1.515,0.564-2.758,1.706-3.726c1.141-0.964,2.65-1.449,4.532-1.449c1.678,0,3.074,0.294,4.189,0.874l-0.746,2.409
			c-1.04-0.564-2.222-0.85-3.54-0.85c-1.042,0-1.859,0.265-2.447,0.763c-0.491,0.463-0.738,1.02-0.738,1.675
			c0,0.725,0.283,1.329,0.848,1.811c0.494,0.436,1.389,0.908,2.68,1.418c1.593,0.634,2.757,1.387,3.508,2.247
			c0.746,0.857,1.122,1.923,1.122,3.198C674.198,190.19,673.649,191.472,672.562,192.452z M682.983,182.706h-3.263v6.467
			c0,1.641,0.579,2.455,1.73,2.455c0.529,0,0.963-0.039,1.312-0.129l0.084,2.239c-0.585,0.219-1.35,0.329-2.299,0.329
			c-1.162,0-2.081-0.351-2.735-1.067c-0.663-0.708-0.99-1.905-0.99-3.584v-6.71h-1.941v-2.215h1.941v-2.435l2.898-0.876v3.311h3.263
			V182.706z M681.316,171.294c-1.928,0-3.434-1.323-3.434-3.532c0-2.251,1.478-3.63,3.546-3.63c2.04,0,3.405,1.436,3.405,3.518
			C684.834,170.169,683.06,171.294,681.316,171.294z M695.111,192.075c-1.227,1.347-2.851,2.021-4.871,2.021
			c-1.956,0-3.517-0.646-4.674-1.942c-1.157-1.293-1.734-2.933-1.734-4.9c0-2.061,0.596-3.75,1.791-5.062
			c1.197-1.318,2.803-1.967,4.828-1.967c1.96,0,3.527,0.642,4.714,1.943c1.128,1.252,1.694,2.881,1.694,4.868
			C696.859,189.085,696.279,190.757,695.111,192.075z M698.166,164.287h0.971v-1.281l1.703-0.479v1.759h1.646v1.294h-1.646v3.025
			c0,0.845,0.225,1.267,0.886,1.267c0.31,0,0.479-0.015,0.676-0.07l0.028,1.308c-0.254,0.098-0.718,0.184-1.252,0.184
			c-0.648,0-1.169-0.211-1.492-0.563c-0.38-0.394-0.549-1.027-0.549-1.928v-3.223h-0.971V164.287z M705.753,183.091
			c-0.291-0.053-0.604-0.075-0.931-0.075c-1.04,0-1.841,0.393-2.408,1.175c-0.494,0.695-0.739,1.559-0.739,2.625v6.98h-2.956v-9.119
			c0-1.524-0.026-2.921-0.079-4.185h2.572l0.11,2.547h0.081c0.309-0.873,0.799-1.578,1.478-2.104c0.657-0.479,1.372-0.71,2.138-0.71
			c0.271,0,0.519,0.015,0.734,0.05V183.091z M706.202,167.03v4.109h-1.729v-9.989h1.729v4.066h0.028
			c0.211-0.323,0.507-0.591,0.858-0.773c0.352-0.198,0.76-0.31,1.196-0.31c1.168,0,2.393,0.774,2.393,2.969v4.038h-1.732v-3.855
			c0-0.985-0.366-1.745-1.322-1.745c-0.676,0-1.154,0.451-1.351,0.971C706.216,166.665,706.202,166.848,706.202,167.03z
			 M718.403,187.86h-8.87c0.035,1.312,0.464,2.312,1.288,3.005c0.746,0.622,1.712,0.933,2.899,0.933
			c1.316,0,2.509-0.209,3.586-0.635l0.466,2.056c-1.255,0.552-2.745,0.819-4.465,0.819c-2.058,0-3.678-0.604-4.854-1.816
			c-1.176-1.213-1.77-2.842-1.77-4.884c0-2.011,0.551-3.677,1.643-5.015c1.155-1.422,2.706-2.132,4.655-2.132
			c1.922,0,3.37,0.71,4.353,2.132c0.782,1.135,1.177,2.532,1.177,4.193C718.51,187.042,718.472,187.489,718.403,187.86z
			 M657.302,165.483c-0.703,0-1.351,0.507-1.533,1.266c-0.029,0.127-0.058,0.281-0.058,0.451v1.111c0,0.141,0.015,0.282,0.043,0.409
			c0.183,0.703,0.788,1.21,1.533,1.21c1.084,0,1.745-0.858,1.745-2.251C659.033,166.468,658.456,165.483,657.302,165.483z
			 M669.759,165.314c-1.069,0-1.519,0.971-1.59,1.674h3.011C671.194,166.355,670.913,165.314,669.759,165.314z M681.386,165.384
			c-1.225,0-1.717,1.196-1.717,2.335c0,1.323,0.661,2.322,1.703,2.322c0.984,0,1.674-0.957,1.674-2.35
			C683.047,166.622,682.568,165.384,681.386,165.384z M648.084,169.071c0,0.675,0.436,0.985,0.984,0.985
			c0.704,0,1.196-0.45,1.365-0.943c0.042-0.126,0.042-0.253,0.042-0.38v-0.942C649.252,167.777,648.084,168.03,648.084,169.071z
			 M715.393,165.314c-1.069,0-1.519,0.971-1.59,1.674h3.011C716.829,166.355,716.547,165.314,715.393,165.314z"/>
	</g>
</g>
<g>
	<path fill="#8D8D8D" d="M603.781,53.096c-0.291-0.202-0.636-0.304-1.036-0.304c-0.341,0-0.633,0.064-0.876,0.192
		s-0.443,0.3-0.6,0.516s-0.273,0.463-0.348,0.74s-0.112,0.565-0.112,0.863c0,0.326,0.037,0.634,0.112,0.925
		c0.075,0.29,0.191,0.544,0.348,0.76s0.359,0.388,0.604,0.516s0.539,0.192,0.88,0.192c0.251,0,0.474-0.041,0.668-0.124
		c0.195-0.083,0.363-0.197,0.504-0.344c0.141-0.146,0.252-0.321,0.332-0.524c0.08-0.202,0.128-0.421,0.144-0.656h0.76
		c-0.075,0.721-0.323,1.28-0.744,1.681c-0.421,0.399-0.997,0.6-1.728,0.6c-0.443,0-0.829-0.076-1.16-0.228
		c-0.331-0.152-0.605-0.361-0.824-0.628s-0.383-0.582-0.492-0.944s-0.164-0.752-0.164-1.168s0.059-0.807,0.176-1.172
		s0.289-0.685,0.516-0.956c0.227-0.272,0.509-0.487,0.848-0.645c0.339-0.157,0.727-0.235,1.164-0.235c0.299,0,0.582,0.04,0.848,0.12
		c0.267,0.079,0.504,0.197,0.712,0.352s0.381,0.348,0.52,0.58c0.139,0.231,0.229,0.5,0.272,0.804h-0.76
		C604.26,53.602,604.072,53.299,603.781,53.096z"/>
	<path fill="#8D8D8D" d="M605.957,54.019c0.115-0.359,0.287-0.678,0.516-0.955c0.229-0.277,0.515-0.499,0.856-0.664
		c0.341-0.166,0.738-0.248,1.192-0.248c0.453,0,0.851,0.082,1.192,0.248c0.341,0.165,0.626,0.387,0.856,0.664
		s0.401,0.596,0.516,0.955c0.115,0.36,0.172,0.735,0.172,1.124c0,0.39-0.057,0.765-0.172,1.124c-0.115,0.36-0.287,0.679-0.516,0.956
		s-0.515,0.498-0.856,0.66c-0.341,0.163-0.739,0.244-1.192,0.244c-0.454,0-0.851-0.081-1.192-0.244
		c-0.341-0.162-0.627-0.383-0.856-0.66c-0.229-0.277-0.401-0.596-0.516-0.956c-0.115-0.359-0.172-0.734-0.172-1.124
		C605.785,54.755,605.842,54.38,605.957,54.019z M606.657,55.996c0.075,0.28,0.192,0.532,0.352,0.756
		c0.16,0.224,0.365,0.404,0.616,0.54c0.25,0.136,0.549,0.204,0.896,0.204s0.645-0.068,0.896-0.204
		c0.25-0.136,0.456-0.316,0.616-0.54c0.16-0.224,0.277-0.476,0.352-0.756s0.112-0.564,0.112-0.853c0-0.287-0.038-0.571-0.112-0.852
		s-0.192-0.532-0.352-0.756c-0.16-0.225-0.365-0.404-0.616-0.54c-0.251-0.136-0.549-0.204-0.896-0.204s-0.646,0.068-0.896,0.204
		c-0.251,0.136-0.456,0.315-0.616,0.54c-0.16,0.224-0.277,0.476-0.352,0.756s-0.112,0.564-0.112,0.852
		C606.545,55.431,606.582,55.716,606.657,55.996z"/>
	<path fill="#8D8D8D" d="M613.241,52.288l1.8,4.8l1.808-4.8h1.04V58h-0.72v-4.752h-0.016L615.369,58h-0.648l-1.784-4.752h-0.016V58
		h-0.72v-5.712H613.241z"/>
	<path fill="#8D8D8D" d="M619.945,52.288V58h-0.76v-5.712H619.945z"/>
	<path fill="#8D8D8D" d="M622.025,52.288l3.008,4.632h0.016v-4.632h0.72V58h-0.832l-2.984-4.584h-0.016V58h-0.72v-5.712H622.025z"/>
	<path fill="#8D8D8D" d="M630.441,57.931c-0.331,0.131-0.664,0.196-1,0.196c-0.427,0-0.808-0.079-1.144-0.236
		s-0.621-0.369-0.856-0.636s-0.414-0.573-0.536-0.92s-0.184-0.707-0.184-1.08c0-0.416,0.057-0.812,0.172-1.188
		s0.285-0.706,0.512-0.988s0.509-0.508,0.848-0.676s0.735-0.252,1.188-0.252c0.309,0,0.601,0.036,0.876,0.107
		c0.275,0.072,0.52,0.186,0.736,0.34c0.216,0.155,0.397,0.352,0.544,0.589c0.146,0.237,0.247,0.523,0.3,0.859h-0.76
		c-0.037-0.219-0.106-0.406-0.208-0.563c-0.101-0.157-0.227-0.287-0.376-0.389c-0.149-0.101-0.318-0.177-0.508-0.228
		s-0.391-0.076-0.604-0.076c-0.347,0-0.644,0.069-0.892,0.208s-0.451,0.321-0.608,0.548s-0.273,0.485-0.348,0.776
		s-0.112,0.588-0.112,0.892c0,0.299,0.042,0.586,0.128,0.86s0.21,0.518,0.376,0.728c0.166,0.211,0.369,0.379,0.612,0.504
		c0.242,0.126,0.524,0.188,0.844,0.188c0.299,0,0.562-0.048,0.792-0.145c0.229-0.096,0.423-0.228,0.58-0.396
		s0.276-0.365,0.356-0.592s0.115-0.471,0.104-0.732h-1.824v-0.64h2.504V58h-0.48l-0.2-0.712
		C631.048,57.587,630.771,57.802,630.441,57.931z"/>
	<path fill="#8D8D8D" d="M638.157,53.068c-0.254-0.185-0.578-0.276-0.972-0.276c-0.16,0-0.317,0.016-0.472,0.048
		s-0.292,0.086-0.412,0.16c-0.12,0.075-0.216,0.175-0.288,0.3c-0.072,0.126-0.108,0.281-0.108,0.468
		c0,0.177,0.052,0.319,0.156,0.429s0.243,0.198,0.416,0.268c0.173,0.069,0.369,0.127,0.588,0.172
		c0.219,0.046,0.441,0.095,0.667,0.148c0.228,0.053,0.449,0.116,0.668,0.188c0.219,0.072,0.415,0.17,0.589,0.292
		c0.173,0.123,0.312,0.277,0.416,0.464c0.104,0.188,0.155,0.422,0.155,0.704c0,0.305-0.067,0.564-0.204,0.78
		c-0.136,0.216-0.311,0.392-0.523,0.528c-0.214,0.136-0.452,0.234-0.716,0.296c-0.265,0.062-0.526,0.092-0.789,0.092
		c-0.32,0-0.623-0.04-0.908-0.12c-0.286-0.08-0.536-0.201-0.752-0.364c-0.216-0.162-0.387-0.37-0.512-0.624
		c-0.125-0.253-0.188-0.553-0.188-0.899h0.72c0,0.24,0.046,0.446,0.14,0.62c0.093,0.173,0.216,0.315,0.368,0.428
		s0.329,0.194,0.532,0.248c0.203,0.054,0.411,0.08,0.624,0.08c0.17,0,0.342-0.016,0.516-0.048c0.173-0.032,0.329-0.087,0.468-0.164
		s0.251-0.183,0.336-0.316c0.085-0.133,0.128-0.304,0.128-0.512c0-0.197-0.052-0.357-0.156-0.48c-0.104-0.122-0.242-0.223-0.416-0.3
		c-0.173-0.077-0.369-0.14-0.588-0.188s-0.441-0.098-0.668-0.148c-0.227-0.051-0.449-0.109-0.668-0.176s-0.415-0.154-0.588-0.264
		s-0.312-0.251-0.416-0.425c-0.104-0.173-0.156-0.391-0.156-0.651c0-0.288,0.059-0.537,0.176-0.748s0.273-0.384,0.468-0.521
		c0.194-0.136,0.416-0.237,0.664-0.304c0.248-0.066,0.503-0.1,0.764-0.1c0.294,0,0.565,0.034,0.816,0.104
		c0.25,0.069,0.471,0.179,0.659,0.328c0.189,0.149,0.339,0.337,0.448,0.564c0.109,0.227,0.17,0.497,0.181,0.812H638.6
		C638.557,53.55,638.41,53.252,638.157,53.068z"/>
	<path fill="#8D8D8D" d="M640.332,54.019c0.115-0.359,0.287-0.678,0.517-0.955s0.515-0.499,0.855-0.664
		c0.342-0.166,0.739-0.248,1.192-0.248s0.851,0.082,1.192,0.248c0.341,0.165,0.626,0.387,0.855,0.664s0.401,0.596,0.516,0.955
		c0.115,0.36,0.173,0.735,0.173,1.124c0,0.39-0.058,0.765-0.173,1.124c-0.114,0.36-0.286,0.679-0.516,0.956s-0.515,0.498-0.855,0.66
		c-0.342,0.163-0.739,0.244-1.192,0.244s-0.851-0.081-1.192-0.244c-0.341-0.162-0.626-0.383-0.855-0.66s-0.401-0.596-0.517-0.956
		c-0.114-0.359-0.172-0.734-0.172-1.124C640.16,54.755,640.217,54.38,640.332,54.019z M641.032,55.996
		c0.075,0.28,0.192,0.532,0.353,0.756s0.365,0.404,0.615,0.54c0.251,0.136,0.55,0.204,0.896,0.204s0.646-0.068,0.896-0.204
		c0.251-0.136,0.456-0.316,0.616-0.54s0.277-0.476,0.353-0.756c0.074-0.28,0.111-0.564,0.111-0.853c0-0.287-0.037-0.571-0.111-0.852
		c-0.075-0.28-0.192-0.532-0.353-0.756c-0.16-0.225-0.365-0.404-0.616-0.54c-0.25-0.136-0.549-0.204-0.896-0.204
		s-0.646,0.068-0.896,0.204c-0.25,0.136-0.455,0.315-0.615,0.54c-0.16,0.224-0.277,0.476-0.353,0.756
		c-0.074,0.28-0.111,0.564-0.111,0.852C640.921,55.431,640.958,55.716,641.032,55.996z"/>
	<path fill="#8D8D8D" d="M646.412,54.019c0.115-0.359,0.287-0.678,0.517-0.955s0.515-0.499,0.855-0.664
		c0.342-0.166,0.739-0.248,1.192-0.248s0.851,0.082,1.192,0.248c0.341,0.165,0.626,0.387,0.855,0.664s0.401,0.596,0.516,0.955
		c0.115,0.36,0.173,0.735,0.173,1.124c0,0.39-0.058,0.765-0.173,1.124c-0.114,0.36-0.286,0.679-0.516,0.956s-0.515,0.498-0.855,0.66
		c-0.342,0.163-0.739,0.244-1.192,0.244s-0.851-0.081-1.192-0.244c-0.341-0.162-0.626-0.383-0.855-0.66s-0.401-0.596-0.517-0.956
		c-0.114-0.359-0.172-0.734-0.172-1.124C646.24,54.755,646.297,54.38,646.412,54.019z M647.112,55.996
		c0.075,0.28,0.192,0.532,0.353,0.756s0.365,0.404,0.615,0.54c0.251,0.136,0.55,0.204,0.896,0.204s0.646-0.068,0.896-0.204
		c0.251-0.136,0.456-0.316,0.616-0.54s0.277-0.476,0.353-0.756c0.074-0.28,0.111-0.564,0.111-0.853c0-0.287-0.037-0.571-0.111-0.852
		c-0.075-0.28-0.192-0.532-0.353-0.756c-0.16-0.225-0.365-0.404-0.616-0.54c-0.25-0.136-0.549-0.204-0.896-0.204
		s-0.646,0.068-0.896,0.204c-0.25,0.136-0.455,0.315-0.615,0.54c-0.16,0.224-0.277,0.476-0.353,0.756
		c-0.074,0.28-0.111,0.564-0.111,0.852C647.001,55.431,647.038,55.716,647.112,55.996z"/>
	<path fill="#8D8D8D" d="M653.44,52.288l3.008,4.632h0.017v-4.632h0.72V58h-0.832l-2.984-4.584h-0.016V58h-0.72v-5.712H653.44z"/>
	<path fill="#8D8D8D" d="M660.032,52.928v-0.64h4.568v0.64h-1.904V58h-0.76v-5.072H660.032z"/>
	<path fill="#8D8D8D" d="M665.084,54.019c0.115-0.359,0.287-0.678,0.517-0.955s0.515-0.499,0.855-0.664
		c0.342-0.166,0.739-0.248,1.192-0.248s0.851,0.082,1.192,0.248c0.341,0.165,0.626,0.387,0.855,0.664s0.401,0.596,0.516,0.955
		c0.115,0.36,0.173,0.735,0.173,1.124c0,0.39-0.058,0.765-0.173,1.124c-0.114,0.36-0.286,0.679-0.516,0.956s-0.515,0.498-0.855,0.66
		c-0.342,0.163-0.739,0.244-1.192,0.244s-0.851-0.081-1.192-0.244c-0.341-0.162-0.626-0.383-0.855-0.66s-0.401-0.596-0.517-0.956
		c-0.114-0.359-0.172-0.734-0.172-1.124C664.912,54.755,664.969,54.38,665.084,54.019z M665.784,55.996
		c0.075,0.28,0.192,0.532,0.353,0.756s0.365,0.404,0.615,0.54c0.251,0.136,0.55,0.204,0.896,0.204s0.646-0.068,0.896-0.204
		c0.251-0.136,0.456-0.316,0.616-0.54s0.277-0.476,0.353-0.756c0.074-0.28,0.111-0.564,0.111-0.853c0-0.287-0.037-0.571-0.111-0.852
		c-0.075-0.28-0.192-0.532-0.353-0.756c-0.16-0.225-0.365-0.404-0.616-0.54c-0.25-0.136-0.549-0.204-0.896-0.204
		s-0.646,0.068-0.896,0.204c-0.25,0.136-0.455,0.315-0.615,0.54c-0.16,0.224-0.277,0.476-0.353,0.756
		c-0.074,0.28-0.111,0.564-0.111,0.852C665.672,55.431,665.71,55.716,665.784,55.996z"/>
	<path fill="#8D8D8D" d="M672.928,52.928v-0.64h4.568v0.64h-1.904V58h-0.76v-5.072H672.928z"/>
	<path fill="#8D8D8D" d="M678.888,52.288v2.456h3.008v-2.456h0.761V58h-0.761v-2.616h-3.008V58h-0.76v-5.712H678.888z"/>
	<path fill="#8D8D8D" d="M687.848,52.288v0.64h-3.185v1.816h2.968v0.64h-2.968v1.977h3.208V58h-3.968v-5.712H687.848z"/>
	<path fill="#8D8D8D" d="M607.999,61.292L614.137,77h-2.31l-1.716-4.73h-6.644l-1.76,4.73h-2.134l6.116-15.708H607.999z
		 M609.451,70.51l-2.618-7.326h-0.044l-2.662,7.326H609.451z"/>
	<path fill="#8D8D8D" d="M615.985,65.626v1.54h0.044c0.308-0.631,0.792-1.089,1.452-1.375c0.66-0.286,1.386-0.429,2.178-0.429
		c0.88,0,1.646,0.161,2.299,0.483c0.652,0.323,1.195,0.76,1.628,1.31s0.759,1.185,0.979,1.902c0.22,0.719,0.33,1.482,0.33,2.288
		c0,0.807-0.106,1.57-0.319,2.288c-0.213,0.719-0.536,1.346-0.968,1.881c-0.433,0.536-0.976,0.957-1.628,1.266
		c-0.653,0.308-1.412,0.462-2.277,0.462c-0.279,0-0.59-0.029-0.935-0.088s-0.686-0.154-1.023-0.286s-0.657-0.312-0.957-0.539
		c-0.301-0.228-0.554-0.51-0.759-0.847h-0.044v5.852h-1.87V65.626H615.985z M622.706,69.663c-0.14-0.506-0.352-0.957-0.638-1.354
		c-0.286-0.396-0.652-0.711-1.1-0.945c-0.448-0.234-0.972-0.353-1.573-0.353c-0.631,0-1.166,0.125-1.606,0.374
		c-0.44,0.25-0.799,0.576-1.078,0.979s-0.48,0.861-0.605,1.375s-0.187,1.034-0.187,1.562c0,0.558,0.066,1.097,0.198,1.617
		s0.341,0.979,0.627,1.375c0.286,0.396,0.656,0.715,1.111,0.957s1.004,0.363,1.65,0.363s1.185-0.125,1.617-0.374
		s0.781-0.579,1.045-0.99c0.264-0.41,0.455-0.88,0.572-1.408c0.117-0.527,0.176-1.07,0.176-1.628
		C622.915,70.685,622.845,70.169,622.706,69.663z"/>
	<path fill="#8D8D8D" d="M627.711,65.626v1.54h0.044c0.308-0.631,0.792-1.089,1.452-1.375c0.66-0.286,1.386-0.429,2.178-0.429
		c0.88,0,1.646,0.161,2.299,0.483c0.652,0.323,1.195,0.76,1.628,1.31s0.759,1.185,0.979,1.902c0.22,0.719,0.33,1.482,0.33,2.288
		c0,0.807-0.106,1.57-0.319,2.288c-0.213,0.719-0.536,1.346-0.968,1.881c-0.433,0.536-0.976,0.957-1.628,1.266
		c-0.653,0.308-1.412,0.462-2.277,0.462c-0.279,0-0.59-0.029-0.935-0.088s-0.686-0.154-1.023-0.286s-0.657-0.312-0.957-0.539
		c-0.301-0.228-0.554-0.51-0.759-0.847h-0.044v5.852h-1.87V65.626H627.711z M634.432,69.663c-0.14-0.506-0.352-0.957-0.638-1.354
		c-0.286-0.396-0.652-0.711-1.1-0.945c-0.448-0.234-0.972-0.353-1.573-0.353c-0.631,0-1.166,0.125-1.606,0.374
		c-0.44,0.25-0.799,0.576-1.078,0.979s-0.48,0.861-0.605,1.375s-0.187,1.034-0.187,1.562c0,0.558,0.066,1.097,0.198,1.617
		s0.341,0.979,0.627,1.375c0.286,0.396,0.656,0.715,1.111,0.957s1.004,0.363,1.65,0.363s1.185-0.125,1.617-0.374
		s0.781-0.579,1.045-0.99c0.264-0.41,0.455-0.88,0.572-1.408c0.117-0.527,0.176-1.07,0.176-1.628
		C634.641,70.685,634.571,70.169,634.432,69.663z"/>
	<path fill="#8D8D8D" d="M650.469,63.436c-0.697-0.506-1.588-0.759-2.673-0.759c-0.44,0-0.873,0.044-1.298,0.132
		c-0.426,0.089-0.804,0.235-1.134,0.44c-0.329,0.205-0.594,0.48-0.792,0.825c-0.197,0.345-0.297,0.773-0.297,1.287
		c0,0.483,0.144,0.876,0.43,1.177c0.285,0.301,0.667,0.547,1.144,0.737s1.016,0.349,1.617,0.473
		c0.602,0.125,1.213,0.261,1.837,0.407c0.623,0.146,1.235,0.318,1.837,0.517s1.141,0.466,1.617,0.803
		c0.477,0.338,0.857,0.764,1.144,1.276c0.286,0.514,0.43,1.159,0.43,1.937c0,0.836-0.188,1.551-0.562,2.145s-0.854,1.078-1.44,1.452
		c-0.587,0.374-1.243,0.646-1.97,0.813c-0.726,0.169-1.448,0.253-2.167,0.253c-0.88,0-1.712-0.109-2.497-0.329
		c-0.784-0.221-1.474-0.554-2.067-1.001c-0.595-0.447-1.063-1.02-1.408-1.717c-0.345-0.696-0.517-1.521-0.517-2.475h1.979
		c0,0.66,0.128,1.229,0.385,1.705s0.595,0.869,1.013,1.177s0.905,0.536,1.463,0.682c0.557,0.147,1.129,0.221,1.716,0.221
		c0.469,0,0.942-0.044,1.419-0.132c0.477-0.089,0.905-0.238,1.287-0.451c0.381-0.213,0.689-0.503,0.924-0.869
		s0.352-0.836,0.352-1.408c0-0.542-0.143-0.982-0.429-1.32c-0.286-0.337-0.667-0.611-1.144-0.824
		c-0.478-0.213-1.016-0.386-1.617-0.518s-1.214-0.268-1.837-0.407c-0.624-0.139-1.236-0.3-1.837-0.483
		c-0.602-0.184-1.141-0.426-1.617-0.727c-0.477-0.3-0.858-0.688-1.145-1.166c-0.285-0.476-0.429-1.074-0.429-1.793
		c0-0.792,0.161-1.478,0.484-2.057c0.322-0.579,0.751-1.056,1.287-1.43c0.535-0.374,1.144-0.652,1.825-0.836
		c0.683-0.184,1.383-0.275,2.102-0.275c0.807,0,1.555,0.096,2.244,0.286s1.294,0.491,1.814,0.902
		c0.521,0.41,0.932,0.928,1.232,1.551c0.301,0.623,0.465,1.367,0.495,2.232h-1.98C651.573,64.761,651.166,63.943,650.469,63.436z"/>
	<path fill="#8D8D8D" d="M660.094,65.626v1.65h-2.266v7.062c0,0.22,0.019,0.396,0.055,0.528c0.037,0.132,0.106,0.234,0.209,0.308
		c0.103,0.074,0.246,0.121,0.43,0.144c0.183,0.021,0.421,0.032,0.715,0.032h0.857V77h-1.43c-0.483,0-0.898-0.033-1.243-0.099
		c-0.345-0.066-0.623-0.188-0.836-0.363s-0.37-0.426-0.473-0.748s-0.154-0.748-0.154-1.276v-7.237h-1.936v-1.65h1.936v-3.41h1.87
		v3.41H660.094z"/>
	<path fill="#8D8D8D" d="M660.578,68.981c0.235-0.727,0.587-1.356,1.057-1.893c0.469-0.535,1.048-0.957,1.738-1.265
		c0.688-0.309,1.48-0.462,2.376-0.462c0.909,0,1.704,0.153,2.387,0.462c0.682,0.308,1.257,0.729,1.727,1.265
		c0.47,0.536,0.821,1.166,1.057,1.893c0.234,0.726,0.352,1.507,0.352,2.343s-0.117,1.613-0.352,2.332
		c-0.235,0.719-0.587,1.346-1.057,1.881s-1.045,0.953-1.727,1.254c-0.683,0.301-1.478,0.451-2.387,0.451
		c-0.896,0-1.688-0.15-2.376-0.451c-0.69-0.301-1.27-0.719-1.738-1.254c-0.47-0.535-0.821-1.162-1.057-1.881
		c-0.234-0.719-0.352-1.496-0.352-2.332S660.343,69.707,660.578,68.981z M662.481,73.161c0.184,0.535,0.437,0.982,0.759,1.342
		c0.323,0.359,0.7,0.635,1.134,0.825c0.432,0.19,0.891,0.286,1.375,0.286c0.483,0,0.941-0.096,1.375-0.286
		c0.432-0.19,0.81-0.466,1.133-0.825c0.322-0.359,0.575-0.807,0.759-1.342s0.275-1.147,0.275-1.837s-0.092-1.302-0.275-1.837
		s-0.437-0.986-0.759-1.354c-0.323-0.366-0.701-0.645-1.133-0.836c-0.434-0.19-0.892-0.286-1.375-0.286
		c-0.484,0-0.943,0.096-1.375,0.286c-0.434,0.191-0.811,0.47-1.134,0.836c-0.322,0.367-0.575,0.818-0.759,1.354
		s-0.274,1.147-0.274,1.837S662.297,72.626,662.481,73.161z"/>
	<path fill="#8D8D8D" d="M673.843,65.626v2.398h0.045c0.454-0.925,1.012-1.606,1.672-2.047c0.659-0.439,1.496-0.645,2.508-0.615
		v1.979c-0.748,0-1.386,0.103-1.914,0.309c-0.528,0.205-0.954,0.506-1.276,0.901c-0.322,0.396-0.558,0.877-0.704,1.441
		s-0.22,1.214-0.22,1.947V77h-1.87V65.626H673.843z"/>
	<path fill="#8D8D8D" d="M685.812,76.274c-0.851,0.646-1.922,0.968-3.212,0.968c-0.909,0-1.698-0.146-2.365-0.44
		c-0.667-0.293-1.229-0.704-1.683-1.231c-0.455-0.528-0.796-1.159-1.023-1.893s-0.355-1.532-0.385-2.397
		c0-0.865,0.132-1.657,0.396-2.376c0.264-0.719,0.634-1.343,1.11-1.87c0.477-0.528,1.041-0.938,1.694-1.232
		c0.652-0.293,1.367-0.439,2.145-0.439c1.013,0,1.852,0.209,2.52,0.627c0.667,0.418,1.202,0.949,1.605,1.595s0.683,1.35,0.836,2.112
		c0.154,0.763,0.217,1.488,0.188,2.178h-8.514c-0.016,0.499,0.044,0.972,0.176,1.419s0.344,0.844,0.638,1.188
		c0.293,0.345,0.667,0.619,1.122,0.824c0.454,0.206,0.99,0.309,1.606,0.309c0.792,0,1.44-0.184,1.946-0.55
		c0.506-0.367,0.84-0.925,1.001-1.673h1.849C687.213,74.668,686.663,75.629,685.812,76.274z M685.361,68.97
		c-0.169-0.396-0.396-0.736-0.682-1.022s-0.624-0.514-1.012-0.683c-0.39-0.168-0.818-0.253-1.287-0.253
		c-0.484,0-0.921,0.085-1.31,0.253c-0.389,0.169-0.723,0.4-1.001,0.693c-0.278,0.294-0.499,0.635-0.66,1.023
		s-0.257,0.803-0.285,1.242h6.533C685.629,69.784,685.53,69.366,685.361,68.97z"/>
</g>
<path fill="#59595B" d="M593.301,164.976h3.013c0.197,0,0.358-0.163,0.358-0.351c0-0.2-0.161-0.361-0.358-0.361h-3.013
	c-0.191,0-0.355,0.161-0.355,0.361C592.946,164.814,593.11,164.976,593.301,164.976z"/>
<path fill="#59595B" d="M594.807,191.38c-0.862,0-1.565,0.705-1.565,1.57c0,0.863,0.703,1.566,1.565,1.566
	c0.866,0,1.567-0.703,1.567-1.566C596.375,192.085,595.674,191.38,594.807,191.38z"/>
<path fill="#59595B" d="M594.807,191.38c-0.862,0-1.565,0.705-1.565,1.57c0,0.863,0.703,1.566,1.565,1.566
	c0.866,0,1.567-0.703,1.567-1.566C596.375,192.085,595.674,191.38,594.807,191.38z"/>
<g>
	<path fill="#8D8D8D" d="M22.743,32.687c0,0,0-24.833,0-27.943s-3.268-3.074-3.268-3.074h-13c-3.417,0-2.794,4.85-2.794,4.85
		s0,23.667,0,27.102s3.794,3.025,3.794,3.025s7.333,0,11.583,0S22.743,32.687,22.743,32.687z M11.695,4.785h3.013
		c0.197,0,0.358,0.161,0.358,0.361c0,0.188-0.161,0.351-0.358,0.351h-3.013c-0.191,0-0.355-0.163-0.355-0.351
		C11.339,4.946,11.503,4.785,11.695,4.785z M13.202,35.037c-0.862,0-1.566-0.703-1.566-1.566c0-0.865,0.703-1.57,1.566-1.57
		c0.866,0,1.567,0.705,1.567,1.57C14.769,34.334,14.068,35.037,13.202,35.037z M20.891,30.558H5.515V7.817h15.376V30.558z"/>
	<g>
		<path fill="#8D8D8D" d="M33.344,6.519c-0.291-0.202-0.636-0.304-1.036-0.304c-0.341,0-0.633,0.064-0.876,0.192
			s-0.443,0.3-0.6,0.516s-0.273,0.463-0.348,0.74s-0.112,0.565-0.112,0.863c0,0.326,0.037,0.634,0.112,0.925
			c0.075,0.29,0.191,0.544,0.348,0.76s0.359,0.388,0.604,0.516s0.539,0.192,0.88,0.192c0.251,0,0.474-0.041,0.668-0.124
			c0.195-0.083,0.363-0.197,0.504-0.344c0.141-0.146,0.252-0.321,0.332-0.524c0.08-0.202,0.128-0.421,0.144-0.656h0.76
			c-0.075,0.721-0.323,1.28-0.744,1.681c-0.421,0.399-0.997,0.6-1.728,0.6c-0.443,0-0.829-0.076-1.16-0.228
			c-0.331-0.152-0.605-0.361-0.824-0.628s-0.383-0.582-0.492-0.944S29.612,9,29.612,8.584s0.059-0.807,0.176-1.172
			s0.289-0.685,0.516-0.956c0.227-0.272,0.509-0.487,0.848-0.645c0.339-0.157,0.727-0.235,1.164-0.235
			c0.299,0,0.582,0.04,0.848,0.12c0.267,0.079,0.504,0.197,0.712,0.352s0.381,0.348,0.52,0.58c0.139,0.231,0.229,0.5,0.272,0.804
			h-0.76C33.823,7.026,33.635,6.722,33.344,6.519z"/>
		<path fill="#8D8D8D" d="M35.52,7.443c0.115-0.359,0.287-0.678,0.516-0.955c0.229-0.277,0.515-0.499,0.856-0.664
			c0.341-0.166,0.738-0.248,1.192-0.248c0.453,0,0.851,0.082,1.192,0.248c0.341,0.165,0.626,0.387,0.856,0.664
			s0.401,0.596,0.516,0.955c0.115,0.36,0.172,0.735,0.172,1.124c0,0.39-0.057,0.765-0.172,1.124
			c-0.115,0.36-0.287,0.679-0.516,0.956s-0.515,0.498-0.856,0.66c-0.341,0.163-0.739,0.244-1.192,0.244
			c-0.454,0-0.851-0.081-1.192-0.244c-0.341-0.162-0.627-0.383-0.856-0.66c-0.229-0.277-0.401-0.596-0.516-0.956
			c-0.115-0.359-0.172-0.734-0.172-1.124C35.348,8.178,35.405,7.803,35.52,7.443z M36.22,9.42c0.075,0.28,0.192,0.532,0.352,0.756
			c0.16,0.224,0.365,0.404,0.616,0.54c0.25,0.136,0.549,0.204,0.896,0.204s0.645-0.068,0.896-0.204
			c0.25-0.136,0.456-0.316,0.616-0.54c0.16-0.224,0.277-0.476,0.352-0.756s0.112-0.564,0.112-0.853c0-0.287-0.038-0.571-0.112-0.852
			s-0.192-0.532-0.352-0.756c-0.16-0.225-0.365-0.404-0.616-0.54c-0.251-0.136-0.549-0.204-0.896-0.204s-0.646,0.068-0.896,0.204
			c-0.251,0.136-0.456,0.315-0.616,0.54c-0.16,0.224-0.277,0.476-0.352,0.756s-0.112,0.564-0.112,0.852
			C36.108,8.855,36.145,9.139,36.22,9.42z"/>
		<path fill="#8D8D8D" d="M42.804,5.712l1.8,4.8l1.808-4.8h1.04v5.712h-0.72V6.672h-0.016l-1.784,4.752h-0.648L42.5,6.672h-0.016
			v4.752h-0.72V5.712H42.804z"/>
		<path fill="#8D8D8D" d="M49.508,5.712v5.712h-0.76V5.712H49.508z"/>
		<path fill="#8D8D8D" d="M51.588,5.712l3.008,4.632h0.016V5.712h0.72v5.712H54.5L51.516,6.84H51.5v4.584h-0.72V5.712H51.588z"/>
		<path fill="#8D8D8D" d="M60.004,11.355c-0.331,0.131-0.664,0.196-1,0.196c-0.427,0-0.808-0.079-1.144-0.236
			s-0.621-0.369-0.856-0.636s-0.414-0.573-0.536-0.92s-0.184-0.707-0.184-1.08c0-0.416,0.057-0.812,0.172-1.188
			s0.285-0.706,0.512-0.988s0.509-0.508,0.848-0.676s0.735-0.252,1.188-0.252c0.309,0,0.601,0.036,0.876,0.107
			c0.275,0.072,0.52,0.186,0.736,0.34c0.216,0.155,0.397,0.352,0.544,0.589c0.146,0.237,0.247,0.523,0.3,0.859h-0.76
			c-0.037-0.219-0.106-0.406-0.208-0.563c-0.101-0.157-0.227-0.287-0.376-0.389c-0.149-0.101-0.318-0.177-0.508-0.228
			s-0.391-0.076-0.604-0.076c-0.347,0-0.644,0.069-0.892,0.208s-0.451,0.321-0.608,0.548s-0.273,0.485-0.348,0.776
			c-0.075,0.291-0.112,0.588-0.112,0.892c0,0.299,0.042,0.586,0.128,0.86s0.21,0.518,0.376,0.728
			c0.166,0.211,0.369,0.379,0.612,0.504c0.242,0.126,0.524,0.188,0.844,0.188c0.299,0,0.562-0.048,0.792-0.145
			c0.229-0.096,0.423-0.228,0.58-0.396s0.276-0.365,0.356-0.592s0.115-0.471,0.104-0.732h-1.824v-0.64h2.504v3.008h-0.48l-0.2-0.712
			C60.611,11.01,60.334,11.225,60.004,11.355z"/>
		<path fill="#8D8D8D" d="M67.72,6.492c-0.254-0.185-0.578-0.276-0.972-0.276c-0.16,0-0.317,0.016-0.472,0.048
			s-0.292,0.086-0.412,0.16c-0.12,0.075-0.216,0.175-0.288,0.3c-0.072,0.126-0.108,0.281-0.108,0.468
			c0,0.177,0.052,0.319,0.156,0.429s0.243,0.198,0.416,0.268c0.173,0.069,0.369,0.127,0.588,0.172
			c0.219,0.046,0.441,0.095,0.667,0.148c0.228,0.053,0.449,0.116,0.668,0.188c0.219,0.072,0.415,0.17,0.589,0.292
			c0.173,0.123,0.312,0.277,0.416,0.464c0.104,0.188,0.155,0.422,0.155,0.704c0,0.305-0.067,0.564-0.204,0.78
			c-0.136,0.216-0.311,0.392-0.523,0.528c-0.214,0.136-0.452,0.234-0.716,0.296c-0.265,0.062-0.526,0.092-0.789,0.092
			c-0.32,0-0.623-0.04-0.908-0.12c-0.286-0.08-0.536-0.201-0.752-0.364c-0.216-0.162-0.387-0.37-0.512-0.624
			c-0.125-0.253-0.188-0.553-0.188-0.899h0.72c0,0.24,0.046,0.446,0.14,0.62c0.093,0.173,0.216,0.315,0.368,0.428
			s0.329,0.194,0.532,0.248c0.203,0.054,0.411,0.08,0.624,0.08c0.17,0,0.342-0.016,0.516-0.048c0.173-0.032,0.329-0.087,0.468-0.164
			s0.251-0.183,0.336-0.316c0.085-0.133,0.128-0.304,0.128-0.512c0-0.197-0.052-0.357-0.156-0.48
			c-0.104-0.122-0.242-0.223-0.416-0.3c-0.173-0.077-0.369-0.14-0.588-0.188s-0.441-0.098-0.668-0.148
			c-0.227-0.051-0.449-0.109-0.668-0.176s-0.415-0.154-0.588-0.264s-0.312-0.251-0.416-0.425c-0.104-0.173-0.156-0.391-0.156-0.651
			c0-0.288,0.059-0.537,0.176-0.748s0.273-0.384,0.468-0.521c0.194-0.136,0.416-0.237,0.664-0.304c0.248-0.066,0.503-0.1,0.764-0.1
			c0.294,0,0.565,0.034,0.816,0.104c0.25,0.069,0.471,0.179,0.659,0.328c0.189,0.149,0.339,0.337,0.448,0.564
			c0.109,0.227,0.17,0.497,0.181,0.812h-0.721C68.12,6.973,67.973,6.675,67.72,6.492z"/>
		<path fill="#8D8D8D" d="M69.895,7.443c0.115-0.359,0.287-0.678,0.517-0.955s0.515-0.499,0.855-0.664
			c0.342-0.166,0.739-0.248,1.192-0.248s0.851,0.082,1.192,0.248c0.341,0.165,0.626,0.387,0.855,0.664s0.401,0.596,0.516,0.955
			c0.115,0.36,0.173,0.735,0.173,1.124c0,0.39-0.058,0.765-0.173,1.124c-0.114,0.36-0.286,0.679-0.516,0.956
			s-0.515,0.498-0.855,0.66c-0.342,0.163-0.739,0.244-1.192,0.244s-0.851-0.081-1.192-0.244c-0.341-0.162-0.626-0.383-0.855-0.66
			s-0.401-0.596-0.517-0.956c-0.114-0.359-0.172-0.734-0.172-1.124C69.723,8.178,69.78,7.803,69.895,7.443z M70.595,9.42
			c0.075,0.28,0.192,0.532,0.353,0.756s0.365,0.404,0.615,0.54c0.251,0.136,0.55,0.204,0.896,0.204s0.646-0.068,0.896-0.204
			c0.251-0.136,0.456-0.316,0.616-0.54S74.248,9.7,74.323,9.42c0.074-0.28,0.111-0.564,0.111-0.853c0-0.287-0.037-0.571-0.111-0.852
			c-0.075-0.28-0.192-0.532-0.353-0.756c-0.16-0.225-0.365-0.404-0.616-0.54c-0.25-0.136-0.549-0.204-0.896-0.204
			s-0.646,0.068-0.896,0.204c-0.25,0.136-0.455,0.315-0.615,0.54c-0.16,0.224-0.277,0.476-0.353,0.756
			c-0.074,0.28-0.111,0.564-0.111,0.852C70.484,8.855,70.521,9.139,70.595,9.42z"/>
		<path fill="#8D8D8D" d="M75.975,7.443c0.115-0.359,0.287-0.678,0.517-0.955s0.515-0.499,0.855-0.664
			c0.342-0.166,0.739-0.248,1.192-0.248s0.851,0.082,1.192,0.248c0.341,0.165,0.626,0.387,0.855,0.664s0.401,0.596,0.516,0.955
			c0.115,0.36,0.173,0.735,0.173,1.124c0,0.39-0.058,0.765-0.173,1.124c-0.114,0.36-0.286,0.679-0.516,0.956
			s-0.515,0.498-0.855,0.66c-0.342,0.163-0.739,0.244-1.192,0.244s-0.851-0.081-1.192-0.244c-0.341-0.162-0.626-0.383-0.855-0.66
			s-0.401-0.596-0.517-0.956c-0.114-0.359-0.172-0.734-0.172-1.124C75.803,8.178,75.86,7.803,75.975,7.443z M76.675,9.42
			c0.075,0.28,0.192,0.532,0.353,0.756s0.365,0.404,0.615,0.54c0.251,0.136,0.55,0.204,0.896,0.204s0.646-0.068,0.896-0.204
			c0.251-0.136,0.456-0.316,0.616-0.54S80.328,9.7,80.403,9.42c0.074-0.28,0.111-0.564,0.111-0.853c0-0.287-0.037-0.571-0.111-0.852
			c-0.075-0.28-0.192-0.532-0.353-0.756c-0.16-0.225-0.365-0.404-0.616-0.54c-0.25-0.136-0.549-0.204-0.896-0.204
			s-0.646,0.068-0.896,0.204c-0.25,0.136-0.455,0.315-0.615,0.54c-0.16,0.224-0.277,0.476-0.353,0.756
			c-0.074,0.28-0.111,0.564-0.111,0.852C76.564,8.855,76.601,9.139,76.675,9.42z"/>
		<path fill="#8D8D8D" d="M83.003,5.712l3.008,4.632h0.017V5.712h0.72v5.712h-0.832L82.931,6.84h-0.016v4.584h-0.72V5.712H83.003z"
			/>
		<path fill="#8D8D8D" d="M89.595,6.351v-0.64h4.568v0.64h-1.904v5.072h-0.76V6.351H89.595z"/>
		<path fill="#8D8D8D" d="M94.647,7.443c0.115-0.359,0.287-0.678,0.517-0.955s0.515-0.499,0.855-0.664
			c0.342-0.166,0.739-0.248,1.192-0.248s0.851,0.082,1.192,0.248c0.341,0.165,0.626,0.387,0.855,0.664s0.401,0.596,0.516,0.955
			c0.115,0.36,0.173,0.735,0.173,1.124c0,0.39-0.058,0.765-0.173,1.124c-0.114,0.36-0.286,0.679-0.516,0.956
			s-0.515,0.498-0.855,0.66c-0.342,0.163-0.739,0.244-1.192,0.244s-0.851-0.081-1.192-0.244c-0.341-0.162-0.626-0.383-0.855-0.66
			s-0.401-0.596-0.517-0.956c-0.114-0.359-0.172-0.734-0.172-1.124C94.475,8.178,94.532,7.803,94.647,7.443z M95.347,9.42
			c0.075,0.28,0.192,0.532,0.353,0.756s0.365,0.404,0.615,0.54c0.251,0.136,0.55,0.204,0.896,0.204s0.646-0.068,0.896-0.204
			c0.251-0.136,0.456-0.316,0.616-0.54S99,9.7,99.075,9.42c0.074-0.28,0.111-0.564,0.111-0.853c0-0.287-0.037-0.571-0.111-0.852
			C99,7.435,98.883,7.183,98.723,6.96c-0.16-0.225-0.365-0.404-0.616-0.54c-0.25-0.136-0.549-0.204-0.896-0.204
			s-0.646,0.068-0.896,0.204c-0.25,0.136-0.455,0.315-0.615,0.54c-0.16,0.224-0.277,0.476-0.353,0.756
			c-0.074,0.28-0.111,0.564-0.111,0.852C95.235,8.855,95.273,9.139,95.347,9.42z"/>
		<path fill="#8D8D8D" d="M102.491,6.351v-0.64h4.568v0.64h-1.904v5.072h-0.76V6.351H102.491z"/>
		<path fill="#8D8D8D" d="M108.451,5.712v2.456h3.008V5.712h0.761v5.712h-0.761V8.807h-3.008v2.616h-0.76V5.712H108.451z"/>
		<path fill="#8D8D8D" d="M117.411,5.712v0.64h-3.185v1.816h2.968v0.64h-2.968v1.977h3.208v0.64h-3.968V5.712H117.411z"/>
		<path fill="#8D8D8D" d="M37.562,14.715L43.7,30.424h-2.31l-1.716-4.73H33.03l-1.76,4.73h-2.134l6.116-15.708H37.562z
			 M39.014,23.933l-2.618-7.326h-0.044l-2.662,7.326H39.014z"/>
		<path fill="#8D8D8D" d="M45.548,19.049v1.54h0.044c0.308-0.631,0.792-1.089,1.452-1.375c0.66-0.286,1.386-0.429,2.178-0.429
			c0.88,0,1.646,0.161,2.299,0.483c0.652,0.323,1.195,0.76,1.628,1.31s0.759,1.185,0.979,1.902c0.22,0.719,0.33,1.482,0.33,2.288
			c0,0.807-0.106,1.57-0.319,2.288c-0.213,0.719-0.536,1.346-0.968,1.881c-0.433,0.536-0.976,0.957-1.628,1.266
			c-0.653,0.308-1.412,0.462-2.277,0.462c-0.279,0-0.59-0.029-0.935-0.088s-0.686-0.154-1.023-0.286s-0.657-0.312-0.957-0.539
			c-0.301-0.228-0.554-0.51-0.759-0.847h-0.044v5.852h-1.87V19.049H45.548z M52.269,23.087c-0.14-0.506-0.352-0.957-0.638-1.354
			c-0.286-0.396-0.652-0.711-1.1-0.945c-0.448-0.234-0.972-0.353-1.573-0.353c-0.631,0-1.166,0.125-1.606,0.374
			c-0.44,0.25-0.799,0.576-1.078,0.979s-0.48,0.861-0.605,1.375s-0.187,1.034-0.187,1.562c0,0.558,0.066,1.097,0.198,1.617
			s0.341,0.979,0.627,1.375c0.286,0.396,0.656,0.715,1.111,0.957s1.004,0.363,1.65,0.363s1.185-0.125,1.617-0.374
			s0.781-0.579,1.045-0.99c0.264-0.41,0.455-0.88,0.572-1.408c0.117-0.527,0.176-1.07,0.176-1.628
			C52.478,24.109,52.408,23.592,52.269,23.087z"/>
		<path fill="#8D8D8D" d="M57.274,19.049v1.54h0.044c0.308-0.631,0.792-1.089,1.452-1.375c0.66-0.286,1.386-0.429,2.178-0.429
			c0.88,0,1.646,0.161,2.299,0.483c0.652,0.323,1.195,0.76,1.628,1.31s0.759,1.185,0.979,1.902c0.22,0.719,0.33,1.482,0.33,2.288
			c0,0.807-0.106,1.57-0.319,2.288c-0.213,0.719-0.536,1.346-0.968,1.881c-0.433,0.536-0.976,0.957-1.628,1.266
			c-0.653,0.308-1.412,0.462-2.277,0.462c-0.279,0-0.59-0.029-0.935-0.088s-0.686-0.154-1.023-0.286s-0.657-0.312-0.957-0.539
			c-0.301-0.228-0.554-0.51-0.759-0.847h-0.044v5.852h-1.87V19.049H57.274z M63.995,23.087c-0.14-0.506-0.352-0.957-0.638-1.354
			c-0.286-0.396-0.652-0.711-1.1-0.945c-0.448-0.234-0.972-0.353-1.573-0.353c-0.631,0-1.166,0.125-1.606,0.374
			c-0.44,0.25-0.799,0.576-1.078,0.979s-0.48,0.861-0.605,1.375s-0.187,1.034-0.187,1.562c0,0.558,0.066,1.097,0.198,1.617
			s0.341,0.979,0.627,1.375c0.286,0.396,0.656,0.715,1.111,0.957s1.004,0.363,1.65,0.363s1.185-0.125,1.617-0.374
			s0.781-0.579,1.045-0.99c0.264-0.41,0.455-0.88,0.572-1.408c0.117-0.527,0.176-1.07,0.176-1.628
			C64.204,24.109,64.134,23.592,63.995,23.087z"/>
		<path fill="#8D8D8D" d="M80.032,16.86c-0.697-0.506-1.588-0.759-2.673-0.759c-0.44,0-0.873,0.044-1.298,0.132
			c-0.426,0.089-0.804,0.235-1.134,0.44c-0.329,0.205-0.594,0.48-0.792,0.825c-0.197,0.345-0.297,0.773-0.297,1.287
			c0,0.483,0.144,0.876,0.43,1.177c0.285,0.301,0.667,0.547,1.144,0.737s1.016,0.349,1.617,0.473
			c0.602,0.125,1.213,0.261,1.837,0.407c0.623,0.146,1.235,0.318,1.837,0.517s1.141,0.466,1.617,0.803
			c0.477,0.338,0.857,0.764,1.144,1.276c0.286,0.514,0.43,1.159,0.43,1.937c0,0.836-0.188,1.551-0.562,2.145
			s-0.854,1.078-1.44,1.452c-0.587,0.374-1.243,0.646-1.97,0.813c-0.726,0.169-1.448,0.253-2.167,0.253
			c-0.88,0-1.712-0.109-2.497-0.329c-0.784-0.221-1.474-0.554-2.067-1.001c-0.595-0.447-1.063-1.02-1.408-1.717
			c-0.345-0.696-0.517-1.521-0.517-2.475h1.979c0,0.66,0.128,1.229,0.385,1.705s0.595,0.869,1.013,1.177s0.905,0.536,1.463,0.682
			c0.557,0.147,1.129,0.221,1.716,0.221c0.469,0,0.942-0.044,1.419-0.132c0.477-0.089,0.905-0.238,1.287-0.451
			c0.381-0.213,0.689-0.503,0.924-0.869s0.352-0.836,0.352-1.408c0-0.542-0.143-0.982-0.429-1.32
			c-0.286-0.337-0.667-0.611-1.144-0.824c-0.478-0.213-1.016-0.386-1.617-0.518s-1.214-0.268-1.837-0.407
			c-0.624-0.139-1.236-0.3-1.837-0.483c-0.602-0.184-1.141-0.426-1.617-0.727c-0.477-0.3-0.858-0.688-1.145-1.166
			c-0.285-0.476-0.429-1.074-0.429-1.793c0-0.792,0.161-1.478,0.484-2.057c0.322-0.579,0.751-1.056,1.287-1.43
			c0.535-0.374,1.144-0.652,1.825-0.836c0.683-0.184,1.383-0.275,2.102-0.275c0.807,0,1.555,0.096,2.244,0.286
			s1.294,0.491,1.814,0.902c0.521,0.41,0.932,0.928,1.232,1.551s0.465,1.367,0.495,2.232h-1.98
			C81.136,18.184,80.729,17.367,80.032,16.86z"/>
		<path fill="#8D8D8D" d="M89.657,19.049v1.65h-2.266v7.062c0,0.22,0.019,0.396,0.055,0.528c0.037,0.132,0.106,0.234,0.209,0.308
			c0.103,0.074,0.246,0.121,0.43,0.144c0.183,0.021,0.421,0.032,0.715,0.032h0.857v1.65h-1.43c-0.483,0-0.898-0.033-1.243-0.099
			c-0.345-0.066-0.623-0.188-0.836-0.363s-0.37-0.426-0.473-0.748s-0.154-0.748-0.154-1.276V20.7h-1.936v-1.65h1.936v-3.41h1.87
			v3.41H89.657z"/>
		<path fill="#8D8D8D" d="M90.141,22.405c0.235-0.727,0.587-1.356,1.057-1.893c0.469-0.535,1.048-0.957,1.738-1.265
			c0.688-0.309,1.48-0.462,2.376-0.462c0.909,0,1.704,0.153,2.387,0.462c0.682,0.308,1.257,0.729,1.727,1.265
			c0.47,0.536,0.821,1.166,1.057,1.893c0.234,0.726,0.352,1.507,0.352,2.343s-0.117,1.613-0.352,2.332
			c-0.235,0.719-0.587,1.346-1.057,1.881s-1.045,0.953-1.727,1.254c-0.683,0.301-1.478,0.451-2.387,0.451
			c-0.896,0-1.688-0.15-2.376-0.451c-0.69-0.301-1.27-0.719-1.738-1.254c-0.47-0.535-0.821-1.162-1.057-1.881
			c-0.234-0.719-0.352-1.496-0.352-2.332S89.906,23.131,90.141,22.405z M92.044,26.585c0.184,0.535,0.437,0.982,0.759,1.342
			c0.323,0.359,0.7,0.635,1.134,0.825c0.432,0.19,0.891,0.286,1.375,0.286c0.483,0,0.941-0.096,1.375-0.286
			c0.432-0.19,0.81-0.466,1.133-0.825c0.322-0.359,0.575-0.807,0.759-1.342s0.275-1.147,0.275-1.837s-0.092-1.302-0.275-1.837
			s-0.437-0.986-0.759-1.354c-0.323-0.366-0.701-0.645-1.133-0.836c-0.434-0.19-0.892-0.286-1.375-0.286
			c-0.484,0-0.943,0.096-1.375,0.286c-0.434,0.191-0.811,0.47-1.134,0.836c-0.322,0.367-0.575,0.818-0.759,1.354
			s-0.274,1.147-0.274,1.837S91.86,26.049,92.044,26.585z"/>
		<path fill="#8D8D8D" d="M103.406,19.049v2.398h0.045c0.454-0.925,1.012-1.606,1.672-2.047c0.659-0.439,1.496-0.645,2.508-0.615
			v1.979c-0.748,0-1.386,0.103-1.914,0.309c-0.528,0.205-0.954,0.506-1.276,0.901c-0.322,0.396-0.558,0.877-0.704,1.441
			s-0.22,1.214-0.22,1.947v5.06h-1.87V19.049H103.406z"/>
		<path fill="#8D8D8D" d="M115.375,29.698c-0.851,0.646-1.922,0.968-3.212,0.968c-0.909,0-1.698-0.146-2.365-0.44
			c-0.667-0.293-1.229-0.704-1.683-1.231c-0.455-0.528-0.796-1.159-1.023-1.893s-0.355-1.532-0.385-2.397
			c0-0.865,0.132-1.657,0.396-2.376c0.264-0.719,0.634-1.343,1.11-1.87c0.477-0.528,1.041-0.938,1.694-1.232
			c0.652-0.293,1.367-0.439,2.145-0.439c1.013,0,1.852,0.209,2.52,0.627c0.667,0.418,1.202,0.949,1.605,1.595
			s0.683,1.35,0.836,2.112c0.154,0.763,0.217,1.488,0.188,2.178h-8.514c-0.016,0.499,0.044,0.972,0.176,1.419
			s0.344,0.844,0.638,1.188c0.293,0.345,0.667,0.619,1.122,0.824c0.454,0.206,0.99,0.309,1.606,0.309c0.792,0,1.44-0.184,1.946-0.55
			c0.506-0.367,0.84-0.925,1.001-1.673h1.849C116.776,28.091,116.226,29.052,115.375,29.698z M114.924,22.393
			c-0.169-0.396-0.396-0.736-0.682-1.022s-0.624-0.514-1.012-0.683c-0.39-0.168-0.818-0.253-1.287-0.253
			c-0.484,0-0.921,0.085-1.31,0.253c-0.389,0.169-0.723,0.4-1.001,0.693c-0.278,0.294-0.499,0.635-0.66,1.023
			s-0.257,0.803-0.285,1.242h6.533C115.192,23.208,115.093,22.79,114.924,22.393z"/>
	</g>
</g>
<g>
</g>
<g>
</g>
<g>
</g>
<g>
</g>
<g>
</g>
<g>
</g>
</svg>
