<?xml version="1.0" encoding="utf-8"?>
<!-- Generator: Adobe Illustrator 17.0.0, SVG Export Plug-In . SVG Version: 6.00 Build 0)  -->
<!DOCTYPE svg PUBLIC "-//W3C//DTD SVG 1.1//EN" "http://www.w3.org/Graphics/SVG/1.1/DTD/svg11.dtd">
<svg version="1.1" id="Layer_1" xmlns="http://www.w3.org/2000/svg" xmlns:xlink="http://www.w3.org/1999/xlink" x="0px" y="0px"
	 width="121.072px" height="38.333px" viewBox="0 0 121.072 38.333" enable-background="new 0 0 121.072 38.333"
	 xml:space="preserve">
<g>
	<path fill="#6FA950" d="M22.743,32.687c0,0,0-24.833,0-27.943s-3.268-3.074-3.268-3.074h-13c-3.417,0-2.794,4.85-2.794,4.85
		s0,23.667,0,27.102s3.794,3.025,3.794,3.025s7.333,0,11.583,0S22.743,32.687,22.743,32.687z M11.695,4.785h3.013
		c0.197,0,0.358,0.161,0.358,0.361c0,0.188-0.161,0.351-0.358,0.351h-3.013c-0.191,0-0.355-0.163-0.355-0.351
		C11.339,4.946,11.503,4.785,11.695,4.785z M13.202,35.037c-0.862,0-1.566-0.703-1.566-1.566c0-0.865,0.703-1.57,1.566-1.57
		c0.866,0,1.567,0.705,1.567,1.57C14.769,34.334,14.068,35.037,13.202,35.037z M20.891,30.558H5.515V7.817h15.376V30.558z"/>
	<g>
		<path fill="#6FA950" d="M33.344,6.519c-0.291-0.202-0.636-0.304-1.036-0.304c-0.341,0-0.633,0.064-0.876,0.192
			s-0.443,0.3-0.6,0.516s-0.273,0.463-0.348,0.74s-0.112,0.565-0.112,0.863c0,0.326,0.037,0.634,0.112,0.925
			c0.075,0.29,0.191,0.544,0.348,0.76s0.359,0.388,0.604,0.516s0.539,0.192,0.88,0.192c0.251,0,0.474-0.041,0.668-0.124
			c0.195-0.083,0.363-0.197,0.504-0.344c0.141-0.146,0.252-0.321,0.332-0.524c0.08-0.202,0.128-0.421,0.144-0.656h0.76
			c-0.075,0.721-0.323,1.28-0.744,1.681c-0.421,0.399-0.997,0.6-1.728,0.6c-0.443,0-0.829-0.076-1.16-0.228
			c-0.331-0.152-0.605-0.361-0.824-0.628s-0.383-0.582-0.492-0.944S29.612,9,29.612,8.584s0.059-0.807,0.176-1.172
			s0.289-0.685,0.516-0.956c0.227-0.272,0.509-0.487,0.848-0.645c0.339-0.157,0.727-0.235,1.164-0.235
			c0.299,0,0.582,0.04,0.848,0.12c0.267,0.079,0.504,0.197,0.712,0.352s0.381,0.348,0.52,0.58c0.139,0.231,0.229,0.5,0.272,0.804
			h-0.76C33.823,7.026,33.635,6.722,33.344,6.519z"/>
		<path fill="#6FA950" d="M35.52,7.443c0.115-0.359,0.287-0.678,0.516-0.955c0.229-0.277,0.515-0.499,0.856-0.664
			c0.341-0.166,0.738-0.248,1.192-0.248c0.453,0,0.851,0.082,1.192,0.248c0.341,0.165,0.626,0.387,0.856,0.664
			s0.401,0.596,0.516,0.955c0.115,0.36,0.172,0.735,0.172,1.124c0,0.39-0.057,0.765-0.172,1.124
			c-0.115,0.36-0.287,0.679-0.516,0.956s-0.515,0.498-0.856,0.66c-0.341,0.163-0.739,0.244-1.192,0.244
			c-0.454,0-0.851-0.081-1.192-0.244c-0.341-0.162-0.627-0.383-0.856-0.66c-0.229-0.277-0.401-0.596-0.516-0.956
			c-0.115-0.359-0.172-0.734-0.172-1.124C35.348,8.178,35.405,7.803,35.52,7.443z M36.22,9.42c0.075,0.28,0.192,0.532,0.352,0.756
			c0.16,0.224,0.365,0.404,0.616,0.54c0.25,0.136,0.549,0.204,0.896,0.204s0.645-0.068,0.896-0.204
			c0.25-0.136,0.456-0.316,0.616-0.54c0.16-0.224,0.277-0.476,0.352-0.756s0.112-0.564,0.112-0.853c0-0.287-0.038-0.571-0.112-0.852
			s-0.192-0.532-0.352-0.756c-0.16-0.225-0.365-0.404-0.616-0.54c-0.251-0.136-0.549-0.204-0.896-0.204s-0.646,0.068-0.896,0.204
			c-0.251,0.136-0.456,0.315-0.616,0.54c-0.16,0.224-0.277,0.476-0.352,0.756s-0.112,0.564-0.112,0.852
			C36.108,8.855,36.145,9.139,36.22,9.42z"/>
		<path fill="#6FA950" d="M42.804,5.712l1.8,4.8l1.808-4.8h1.04v5.712h-0.72V6.672h-0.016l-1.784,4.752h-0.648L42.5,6.672h-0.016
			v4.752h-0.72V5.712H42.804z"/>
		<path fill="#6FA950" d="M49.508,5.712v5.712h-0.76V5.712H49.508z"/>
		<path fill="#6FA950" d="M51.588,5.712l3.008,4.632h0.016V5.712h0.72v5.712H54.5L51.516,6.84H51.5v4.584h-0.72V5.712H51.588z"/>
		<path fill="#6FA950" d="M60.004,11.355c-0.331,0.131-0.664,0.196-1,0.196c-0.427,0-0.808-0.079-1.144-0.236
			s-0.621-0.369-0.856-0.636s-0.414-0.573-0.536-0.92s-0.184-0.707-0.184-1.08c0-0.416,0.057-0.812,0.172-1.188
			s0.285-0.706,0.512-0.988s0.509-0.508,0.848-0.676s0.735-0.252,1.188-0.252c0.309,0,0.601,0.036,0.876,0.107
			c0.275,0.072,0.52,0.186,0.736,0.34c0.216,0.155,0.397,0.352,0.544,0.589c0.146,0.237,0.247,0.523,0.3,0.859h-0.76
			c-0.037-0.219-0.106-0.406-0.208-0.563c-0.101-0.157-0.227-0.287-0.376-0.389c-0.149-0.101-0.318-0.177-0.508-0.228
			s-0.391-0.076-0.604-0.076c-0.347,0-0.644,0.069-0.892,0.208s-0.451,0.321-0.608,0.548s-0.273,0.485-0.348,0.776
			c-0.075,0.291-0.112,0.588-0.112,0.892c0,0.299,0.042,0.586,0.128,0.86s0.21,0.518,0.376,0.728
			c0.166,0.211,0.369,0.379,0.612,0.504c0.242,0.126,0.524,0.188,0.844,0.188c0.299,0,0.562-0.048,0.792-0.145
			c0.229-0.096,0.423-0.228,0.58-0.396s0.276-0.365,0.356-0.592s0.115-0.471,0.104-0.732h-1.824v-0.64h2.504v3.008h-0.48l-0.2-0.712
			C60.611,11.01,60.334,11.225,60.004,11.355z"/>
		<path fill="#6FA950" d="M67.72,6.492c-0.254-0.185-0.578-0.276-0.972-0.276c-0.16,0-0.317,0.016-0.472,0.048
			s-0.292,0.086-0.412,0.16c-0.12,0.075-0.216,0.175-0.288,0.3c-0.072,0.126-0.108,0.281-0.108,0.468
			c0,0.177,0.052,0.319,0.156,0.429s0.243,0.198,0.416,0.268c0.173,0.069,0.369,0.127,0.588,0.172
			c0.219,0.046,0.441,0.095,0.667,0.148c0.228,0.053,0.449,0.116,0.668,0.188c0.219,0.072,0.415,0.17,0.589,0.292
			c0.173,0.123,0.312,0.277,0.416,0.464c0.104,0.188,0.155,0.422,0.155,0.704c0,0.305-0.067,0.564-0.204,0.78
			c-0.136,0.216-0.311,0.392-0.523,0.528c-0.214,0.136-0.452,0.234-0.716,0.296c-0.265,0.062-0.526,0.092-0.789,0.092
			c-0.32,0-0.623-0.04-0.908-0.12c-0.286-0.08-0.536-0.201-0.752-0.364c-0.216-0.162-0.387-0.37-0.512-0.624
			c-0.125-0.253-0.188-0.553-0.188-0.899h0.72c0,0.24,0.046,0.446,0.14,0.62c0.093,0.173,0.216,0.315,0.368,0.428
			s0.329,0.194,0.532,0.248c0.203,0.054,0.411,0.08,0.624,0.08c0.17,0,0.342-0.016,0.516-0.048c0.173-0.032,0.329-0.087,0.468-0.164
			s0.251-0.183,0.336-0.316c0.085-0.133,0.128-0.304,0.128-0.512c0-0.197-0.052-0.357-0.156-0.48
			c-0.104-0.122-0.242-0.223-0.416-0.3c-0.173-0.077-0.369-0.14-0.588-0.188s-0.441-0.098-0.668-0.148
			c-0.227-0.051-0.449-0.109-0.668-0.176s-0.415-0.154-0.588-0.264s-0.312-0.251-0.416-0.425c-0.104-0.173-0.156-0.391-0.156-0.651
			c0-0.288,0.059-0.537,0.176-0.748s0.273-0.384,0.468-0.521c0.194-0.136,0.416-0.237,0.664-0.304c0.248-0.066,0.503-0.1,0.764-0.1
			c0.294,0,0.565,0.034,0.816,0.104c0.25,0.069,0.471,0.179,0.659,0.328c0.189,0.149,0.339,0.337,0.448,0.564
			c0.109,0.227,0.17,0.497,0.181,0.812h-0.721C68.12,6.973,67.973,6.675,67.72,6.492z"/>
		<path fill="#6FA950" d="M69.895,7.443c0.115-0.359,0.287-0.678,0.517-0.955s0.515-0.499,0.855-0.664
			c0.342-0.166,0.739-0.248,1.192-0.248s0.851,0.082,1.192,0.248c0.341,0.165,0.626,0.387,0.855,0.664s0.401,0.596,0.516,0.955
			c0.115,0.36,0.173,0.735,0.173,1.124c0,0.39-0.058,0.765-0.173,1.124c-0.114,0.36-0.286,0.679-0.516,0.956
			s-0.515,0.498-0.855,0.66c-0.342,0.163-0.739,0.244-1.192,0.244s-0.851-0.081-1.192-0.244c-0.341-0.162-0.626-0.383-0.855-0.66
			s-0.401-0.596-0.517-0.956c-0.114-0.359-0.172-0.734-0.172-1.124C69.723,8.178,69.78,7.803,69.895,7.443z M70.595,9.42
			c0.075,0.28,0.192,0.532,0.353,0.756s0.365,0.404,0.615,0.54c0.251,0.136,0.55,0.204,0.896,0.204s0.646-0.068,0.896-0.204
			c0.251-0.136,0.456-0.316,0.616-0.54S74.248,9.7,74.323,9.42c0.074-0.28,0.111-0.564,0.111-0.853c0-0.287-0.037-0.571-0.111-0.852
			c-0.075-0.28-0.192-0.532-0.353-0.756c-0.16-0.225-0.365-0.404-0.616-0.54c-0.25-0.136-0.549-0.204-0.896-0.204
			s-0.646,0.068-0.896,0.204c-0.25,0.136-0.455,0.315-0.615,0.54c-0.16,0.224-0.277,0.476-0.353,0.756
			c-0.074,0.28-0.111,0.564-0.111,0.852C70.484,8.855,70.521,9.139,70.595,9.42z"/>
		<path fill="#6FA950" d="M75.975,7.443c0.115-0.359,0.287-0.678,0.517-0.955s0.515-0.499,0.855-0.664
			c0.342-0.166,0.739-0.248,1.192-0.248s0.851,0.082,1.192,0.248c0.341,0.165,0.626,0.387,0.855,0.664s0.401,0.596,0.516,0.955
			c0.115,0.36,0.173,0.735,0.173,1.124c0,0.39-0.058,0.765-0.173,1.124c-0.114,0.36-0.286,0.679-0.516,0.956
			s-0.515,0.498-0.855,0.66c-0.342,0.163-0.739,0.244-1.192,0.244s-0.851-0.081-1.192-0.244c-0.341-0.162-0.626-0.383-0.855-0.66
			s-0.401-0.596-0.517-0.956c-0.114-0.359-0.172-0.734-0.172-1.124C75.803,8.178,75.86,7.803,75.975,7.443z M76.675,9.42
			c0.075,0.28,0.192,0.532,0.353,0.756s0.365,0.404,0.615,0.54c0.251,0.136,0.55,0.204,0.896,0.204s0.646-0.068,0.896-0.204
			c0.251-0.136,0.456-0.316,0.616-0.54S80.328,9.7,80.403,9.42c0.074-0.28,0.111-0.564,0.111-0.853c0-0.287-0.037-0.571-0.111-0.852
			c-0.075-0.28-0.192-0.532-0.353-0.756c-0.16-0.225-0.365-0.404-0.616-0.54c-0.25-0.136-0.549-0.204-0.896-0.204
			s-0.646,0.068-0.896,0.204c-0.25,0.136-0.455,0.315-0.615,0.54c-0.16,0.224-0.277,0.476-0.353,0.756
			c-0.074,0.28-0.111,0.564-0.111,0.852C76.564,8.855,76.601,9.139,76.675,9.42z"/>
		<path fill="#6FA950" d="M83.003,5.712l3.008,4.632h0.017V5.712h0.72v5.712h-0.832L82.931,6.84h-0.016v4.584h-0.72V5.712H83.003z"
			/>
		<path fill="#6FA950" d="M89.595,6.351v-0.64h4.568v0.64h-1.904v5.072h-0.76V6.351H89.595z"/>
		<path fill="#6FA950" d="M94.647,7.443c0.115-0.359,0.287-0.678,0.517-0.955s0.515-0.499,0.855-0.664
			c0.342-0.166,0.739-0.248,1.192-0.248s0.851,0.082,1.192,0.248c0.341,0.165,0.626,0.387,0.855,0.664s0.401,0.596,0.516,0.955
			c0.115,0.36,0.173,0.735,0.173,1.124c0,0.39-0.058,0.765-0.173,1.124c-0.114,0.36-0.286,0.679-0.516,0.956
			s-0.515,0.498-0.855,0.66c-0.342,0.163-0.739,0.244-1.192,0.244s-0.851-0.081-1.192-0.244c-0.341-0.162-0.626-0.383-0.855-0.66
			s-0.401-0.596-0.517-0.956c-0.114-0.359-0.172-0.734-0.172-1.124C94.475,8.178,94.532,7.803,94.647,7.443z M95.347,9.42
			c0.075,0.28,0.192,0.532,0.353,0.756s0.365,0.404,0.615,0.54c0.251,0.136,0.55,0.204,0.896,0.204s0.646-0.068,0.896-0.204
			c0.251-0.136,0.456-0.316,0.616-0.54S99,9.7,99.075,9.42c0.074-0.28,0.111-0.564,0.111-0.853c0-0.287-0.037-0.571-0.111-0.852
			C99,7.435,98.883,7.183,98.723,6.96c-0.16-0.225-0.365-0.404-0.616-0.54c-0.25-0.136-0.549-0.204-0.896-0.204
			s-0.646,0.068-0.896,0.204c-0.25,0.136-0.455,0.315-0.615,0.54c-0.16,0.224-0.277,0.476-0.353,0.756
			c-0.074,0.28-0.111,0.564-0.111,0.852C95.235,8.855,95.273,9.139,95.347,9.42z"/>
		<path fill="#6FA950" d="M102.491,6.351v-0.64h4.568v0.64h-1.904v5.072h-0.76V6.351H102.491z"/>
		<path fill="#6FA950" d="M108.451,5.712v2.456h3.008V5.712h0.761v5.712h-0.761V8.807h-3.008v2.616h-0.76V5.712H108.451z"/>
		<path fill="#6FA950" d="M117.411,5.712v0.64h-3.185v1.816h2.968v0.64h-2.968v1.977h3.208v0.64h-3.968V5.712H117.411z"/>
		<path fill="#6FA950" d="M37.562,14.715L43.7,30.424h-2.31l-1.716-4.73H33.03l-1.76,4.73h-2.134l6.116-15.708H37.562z
			 M39.014,23.933l-2.618-7.326h-0.044l-2.662,7.326H39.014z"/>
		<path fill="#6FA950" d="M45.548,19.049v1.54h0.044c0.308-0.631,0.792-1.089,1.452-1.375c0.66-0.286,1.386-0.429,2.178-0.429
			c0.88,0,1.646,0.161,2.299,0.483c0.652,0.323,1.195,0.76,1.628,1.31s0.759,1.185,0.979,1.902c0.22,0.719,0.33,1.482,0.33,2.288
			c0,0.807-0.106,1.57-0.319,2.288c-0.213,0.719-0.536,1.346-0.968,1.881c-0.433,0.536-0.976,0.957-1.628,1.266
			c-0.653,0.308-1.412,0.462-2.277,0.462c-0.279,0-0.59-0.029-0.935-0.088s-0.686-0.154-1.023-0.286s-0.657-0.312-0.957-0.539
			c-0.301-0.228-0.554-0.51-0.759-0.847h-0.044v5.852h-1.87V19.049H45.548z M52.269,23.087c-0.14-0.506-0.352-0.957-0.638-1.354
			c-0.286-0.396-0.652-0.711-1.1-0.945c-0.448-0.234-0.972-0.353-1.573-0.353c-0.631,0-1.166,0.125-1.606,0.374
			c-0.44,0.25-0.799,0.576-1.078,0.979s-0.48,0.861-0.605,1.375s-0.187,1.034-0.187,1.562c0,0.558,0.066,1.097,0.198,1.617
			s0.341,0.979,0.627,1.375c0.286,0.396,0.656,0.715,1.111,0.957s1.004,0.363,1.65,0.363s1.185-0.125,1.617-0.374
			s0.781-0.579,1.045-0.99c0.264-0.41,0.455-0.88,0.572-1.408c0.117-0.527,0.176-1.07,0.176-1.628
			C52.478,24.109,52.408,23.592,52.269,23.087z"/>
		<path fill="#6FA950" d="M57.274,19.049v1.54h0.044c0.308-0.631,0.792-1.089,1.452-1.375c0.66-0.286,1.386-0.429,2.178-0.429
			c0.88,0,1.646,0.161,2.299,0.483c0.652,0.323,1.195,0.76,1.628,1.31s0.759,1.185,0.979,1.902c0.22,0.719,0.33,1.482,0.33,2.288
			c0,0.807-0.106,1.57-0.319,2.288c-0.213,0.719-0.536,1.346-0.968,1.881c-0.433,0.536-0.976,0.957-1.628,1.266
			c-0.653,0.308-1.412,0.462-2.277,0.462c-0.279,0-0.59-0.029-0.935-0.088s-0.686-0.154-1.023-0.286s-0.657-0.312-0.957-0.539
			c-0.301-0.228-0.554-0.51-0.759-0.847h-0.044v5.852h-1.87V19.049H57.274z M63.995,23.087c-0.14-0.506-0.352-0.957-0.638-1.354
			c-0.286-0.396-0.652-0.711-1.1-0.945c-0.448-0.234-0.972-0.353-1.573-0.353c-0.631,0-1.166,0.125-1.606,0.374
			c-0.44,0.25-0.799,0.576-1.078,0.979s-0.48,0.861-0.605,1.375s-0.187,1.034-0.187,1.562c0,0.558,0.066,1.097,0.198,1.617
			s0.341,0.979,0.627,1.375c0.286,0.396,0.656,0.715,1.111,0.957s1.004,0.363,1.65,0.363s1.185-0.125,1.617-0.374
			s0.781-0.579,1.045-0.99c0.264-0.41,0.455-0.88,0.572-1.408c0.117-0.527,0.176-1.07,0.176-1.628
			C64.204,24.109,64.134,23.592,63.995,23.087z"/>
		<path fill="#6FA950" d="M80.032,16.86c-0.697-0.506-1.588-0.759-2.673-0.759c-0.44,0-0.873,0.044-1.298,0.132
			c-0.426,0.089-0.804,0.235-1.134,0.44c-0.329,0.205-0.594,0.48-0.792,0.825c-0.197,0.345-0.297,0.773-0.297,1.287
			c0,0.483,0.144,0.876,0.43,1.177c0.285,0.301,0.667,0.547,1.144,0.737s1.016,0.349,1.617,0.473
			c0.602,0.125,1.213,0.261,1.837,0.407c0.623,0.146,1.235,0.318,1.837,0.517s1.141,0.466,1.617,0.803
			c0.477,0.338,0.857,0.764,1.144,1.276c0.286,0.514,0.43,1.159,0.43,1.937c0,0.836-0.188,1.551-0.562,2.145
			s-0.854,1.078-1.44,1.452c-0.587,0.374-1.243,0.646-1.97,0.813c-0.726,0.169-1.448,0.253-2.167,0.253
			c-0.88,0-1.712-0.109-2.497-0.329c-0.784-0.221-1.474-0.554-2.067-1.001c-0.595-0.447-1.063-1.02-1.408-1.717
			c-0.345-0.696-0.517-1.521-0.517-2.475h1.979c0,0.66,0.128,1.229,0.385,1.705s0.595,0.869,1.013,1.177s0.905,0.536,1.463,0.682
			c0.557,0.147,1.129,0.221,1.716,0.221c0.469,0,0.942-0.044,1.419-0.132c0.477-0.089,0.905-0.238,1.287-0.451
			c0.381-0.213,0.689-0.503,0.924-0.869s0.352-0.836,0.352-1.408c0-0.542-0.143-0.982-0.429-1.32
			c-0.286-0.337-0.667-0.611-1.144-0.824c-0.478-0.213-1.016-0.386-1.617-0.518s-1.214-0.268-1.837-0.407
			c-0.624-0.139-1.236-0.3-1.837-0.483c-0.602-0.184-1.141-0.426-1.617-0.727c-0.477-0.3-0.858-0.688-1.145-1.166
			c-0.285-0.476-0.429-1.074-0.429-1.793c0-0.792,0.161-1.478,0.484-2.057c0.322-0.579,0.751-1.056,1.287-1.43
			c0.535-0.374,1.144-0.652,1.825-0.836c0.683-0.184,1.383-0.275,2.102-0.275c0.807,0,1.555,0.096,2.244,0.286
			s1.294,0.491,1.814,0.902c0.521,0.41,0.932,0.928,1.232,1.551s0.465,1.367,0.495,2.232h-1.98
			C81.136,18.184,80.729,17.367,80.032,16.86z"/>
		<path fill="#6FA950" d="M89.657,19.049v1.65h-2.266v7.062c0,0.22,0.019,0.396,0.055,0.528c0.037,0.132,0.106,0.234,0.209,0.308
			c0.103,0.074,0.246,0.121,0.43,0.144c0.183,0.021,0.421,0.032,0.715,0.032h0.857v1.65h-1.43c-0.483,0-0.898-0.033-1.243-0.099
			c-0.345-0.066-0.623-0.188-0.836-0.363s-0.37-0.426-0.473-0.748s-0.154-0.748-0.154-1.276V20.7h-1.936v-1.65h1.936v-3.41h1.87
			v3.41H89.657z"/>
		<path fill="#6FA950" d="M90.141,22.405c0.235-0.727,0.587-1.356,1.057-1.893c0.469-0.535,1.048-0.957,1.738-1.265
			c0.688-0.309,1.48-0.462,2.376-0.462c0.909,0,1.704,0.153,2.387,0.462c0.682,0.308,1.257,0.729,1.727,1.265
			c0.47,0.536,0.821,1.166,1.057,1.893c0.234,0.726,0.352,1.507,0.352,2.343s-0.117,1.613-0.352,2.332
			c-0.235,0.719-0.587,1.346-1.057,1.881s-1.045,0.953-1.727,1.254c-0.683,0.301-1.478,0.451-2.387,0.451
			c-0.896,0-1.688-0.15-2.376-0.451c-0.69-0.301-1.27-0.719-1.738-1.254c-0.47-0.535-0.821-1.162-1.057-1.881
			c-0.234-0.719-0.352-1.496-0.352-2.332S89.906,23.131,90.141,22.405z M92.044,26.585c0.184,0.535,0.437,0.982,0.759,1.342
			c0.323,0.359,0.7,0.635,1.134,0.825c0.432,0.19,0.891,0.286,1.375,0.286c0.483,0,0.941-0.096,1.375-0.286
			c0.432-0.19,0.81-0.466,1.133-0.825c0.322-0.359,0.575-0.807,0.759-1.342s0.275-1.147,0.275-1.837s-0.092-1.302-0.275-1.837
			s-0.437-0.986-0.759-1.354c-0.323-0.366-0.701-0.645-1.133-0.836c-0.434-0.19-0.892-0.286-1.375-0.286
			c-0.484,0-0.943,0.096-1.375,0.286c-0.434,0.191-0.811,0.47-1.134,0.836c-0.322,0.367-0.575,0.818-0.759,1.354
			s-0.274,1.147-0.274,1.837S91.86,26.049,92.044,26.585z"/>
		<path fill="#6FA950" d="M103.406,19.049v2.398h0.045c0.454-0.925,1.012-1.606,1.672-2.047c0.659-0.439,1.496-0.645,2.508-0.615
			v1.979c-0.748,0-1.386,0.103-1.914,0.309c-0.528,0.205-0.954,0.506-1.276,0.901c-0.322,0.396-0.558,0.877-0.704,1.441
			s-0.22,1.214-0.22,1.947v5.06h-1.87V19.049H103.406z"/>
		<path fill="#6FA950" d="M115.375,29.698c-0.851,0.646-1.922,0.968-3.212,0.968c-0.909,0-1.698-0.146-2.365-0.44
			c-0.667-0.293-1.229-0.704-1.683-1.231c-0.455-0.528-0.796-1.159-1.023-1.893s-0.355-1.532-0.385-2.397
			c0-0.865,0.132-1.657,0.396-2.376c0.264-0.719,0.634-1.343,1.11-1.87c0.477-0.528,1.041-0.938,1.694-1.232
			c0.652-0.293,1.367-0.439,2.145-0.439c1.013,0,1.852,0.209,2.52,0.627c0.667,0.418,1.202,0.949,1.605,1.595
			s0.683,1.35,0.836,2.112c0.154,0.763,0.217,1.488,0.188,2.178h-8.514c-0.016,0.499,0.044,0.972,0.176,1.419
			s0.344,0.844,0.638,1.188c0.293,0.345,0.667,0.619,1.122,0.824c0.454,0.206,0.99,0.309,1.606,0.309c0.792,0,1.44-0.184,1.946-0.55
			c0.506-0.367,0.84-0.925,1.001-1.673h1.849C116.776,28.091,116.226,29.052,115.375,29.698z M114.924,22.393
			c-0.169-0.396-0.396-0.736-0.682-1.022s-0.624-0.514-1.012-0.683c-0.39-0.168-0.818-0.253-1.287-0.253
			c-0.484,0-0.921,0.085-1.31,0.253c-0.389,0.169-0.723,0.4-1.001,0.693c-0.278,0.294-0.499,0.635-0.66,1.023
			s-0.257,0.803-0.285,1.242h6.533C115.192,23.208,115.093,22.79,114.924,22.393z"/>
	</g>
</g>
</svg>
