<?xml version="1.0" encoding="utf-8"?>
<!-- Generator: Adobe Illustrator 17.0.0, SVG Export Plug-In . SVG Version: 6.00 Build 0)  -->
<!DOCTYPE svg PUBLIC "-//W3C//DTD SVG 1.1//EN" "http://www.w3.org/Graphics/SVG/1.1/DTD/svg11.dtd">
<svg version="1.1" id="Layer_1" xmlns="http://www.w3.org/2000/svg" xmlns:xlink="http://www.w3.org/1999/xlink" x="0px" y="0px"
	 width="121.072px" height="38.333px" viewBox="0 0 121.072 38.333" enable-background="new 0 0 121.072 38.333"
	 xml:space="preserve">
<g>
	<g>
		<polygon fill="none" points="12.104,19.153 15.425,15.833 15.423,15.833 12.104,19.153 1.507,8.558 1.507,8.558 12.104,19.155 
			1.49,29.77 1.49,29.77 12.104,19.155 15.439,22.49 15.441,22.49 		"/>
		
			<linearGradient id="SVGID_1_" gradientUnits="userSpaceOnUse" x1="674.156" y1="765.5397" x2="660.1641" y2="774.2964" gradientTransform="matrix(0.7071 0.7071 0.7071 -0.7071 -1008.1383 82.9185)">
			<stop  offset="0" style="stop-color:#D6FFA1"/>
			<stop  offset="0.3264" style="stop-color:#93E2A7"/>
			<stop  offset="1" style="stop-color:#00A3B5"/>
		</linearGradient>
		<path fill="url(#SVGID_1_)" d="M15.423,15.833L2.486,8.72C2.12,8.519,1.781,8.472,1.507,8.558l10.597,10.596L15.423,15.833z"/>
		
			<linearGradient id="SVGID_2_" gradientUnits="userSpaceOnUse" x1="666.0209" y1="773.02" x2="684.1619" y2="768.2776" gradientTransform="matrix(0.7071 0.7071 0.7071 -0.7071 -1008.1383 82.9185)">
			<stop  offset="0" style="stop-color:#FF177B"/>
			<stop  offset="0.6721" style="stop-color:#FFA976"/>
			<stop  offset="1" style="stop-color:#FFEC73"/>
		</linearGradient>
		<path fill="url(#SVGID_2_)" d="M15.441,22.49l4.416-2.428c0.896-0.494,0.896-1.299,0-1.791l-4.432-2.437l-3.32,3.32L15.441,22.49z
			"/>
		
			<linearGradient id="SVGID_3_" gradientUnits="userSpaceOnUse" x1="676.1484" y1="758.8978" x2="656.4767" y2="770.4715" gradientTransform="matrix(0.7071 0.7071 0.7071 -0.7071 -1008.1383 82.9185)">
			<stop  offset="0" style="stop-color:#63FFD4"/>
			<stop  offset="0.4854" style="stop-color:#32A0BA"/>
			<stop  offset="0.8349" style="stop-color:#1262A9"/>
			<stop  offset="1" style="stop-color:#064AA2"/>
		</linearGradient>
		<path fill="url(#SVGID_3_)" d="M1.507,8.558C1.113,8.681,0.859,9.079,0.859,9.682L0.861,28.65c0,0.595,0.247,0.988,0.629,1.119
			l10.614-10.614L1.507,8.558z"/>
		
			<linearGradient id="SVGID_4_" gradientUnits="userSpaceOnUse" x1="683.29" y1="768.0869" x2="671.1777" y2="752.1295" gradientTransform="matrix(0.7071 0.7071 0.7071 -0.7071 -1008.1383 82.9185)">
			<stop  offset="0" style="stop-color:#FF4521"/>
			<stop  offset="0.3411" style="stop-color:#D43E65"/>
			<stop  offset="0.7935" style="stop-color:#9F36B9"/>
			<stop  offset="1" style="stop-color:#8A33DB"/>
		</linearGradient>
		<path fill="url(#SVGID_4_)" d="M1.49,29.77c0.275,0.093,0.621,0.05,0.996-0.156l12.953-7.123l-3.335-3.335L1.49,29.77z"/>
	</g>
	<g>
		<g>
			<g>
				<path fill="#6FA850" d="M84.35,26.728l-0.979,0.923c-0.226,0.124-0.451,0.269-0.675,0.371c-0.68,0.309-1.371,0.386-1.985,0.386
					c-0.654,0-1.678-0.042-2.723-0.798c-1.452-1.023-2.087-2.781-2.087-4.313c0-3.172,2.582-4.728,4.688-4.728
					c0.737,0,1.493,0.184,2.108,0.573c1.022,0.675,1.287,1.554,1.433,2.025l-4.811,1.943l-1.575,0.122
					c0.51,2.601,2.269,4.113,4.214,4.113c0.971,0,1.692-0.317,2.354-0.644C84.312,26.703,84.445,26.634,84.35,26.728z
					 M81.448,21.555c0.391-0.142,0.594-0.265,0.594-0.549c0-0.817-0.925-1.761-2.028-1.761c-0.818,0-2.352,0.637-2.352,2.847
					c0,0.345,0.041,0.712,0.062,1.08L81.448,21.555z"/>
				<path fill="#6FA850" d="M74.292,26.57c0,0.796,0.142,0.919,0.814,0.981c0.35,0.041,0.7,0.06,1.046,0.101l-0.757,0.451H71.79
					c0.473-0.614,0.554-0.674,0.554-1.084v-0.457l-0.008-12.165h-1.592l1.532-0.739h2.926c-0.634,0.367-0.823,0.591-0.905,1.307
					L74.292,26.57z"/>
				<path fill="#6FA850" d="M68.701,19.573c0.47,0.386,1.45,1.205,1.45,2.761c0,1.515-0.854,2.229-1.716,2.906
					c-0.264,0.266-0.573,0.555-0.573,1.001c0,0.452,0.309,0.698,0.532,0.881l0.739,0.571c0.899,0.759,1.718,1.454,1.718,2.867
					c0,1.925-1.863,3.865-5.382,3.865c-2.965,0-4.398-1.412-4.398-2.926c0-0.737,0.366-1.781,1.577-2.495
					c1.268-0.775,2.987-0.879,3.907-0.94c-0.287-0.371-0.615-0.76-0.615-1.394c0-0.347,0.104-0.554,0.205-0.797
					c-0.224,0.021-0.449,0.043-0.654,0.043c-2.17,0-3.397-1.619-3.397-3.215c0-0.941,0.429-1.985,1.311-2.741
					c1.167-0.96,2.557-1.126,3.663-1.126h4.216l-1.311,0.74L68.701,19.573L68.701,19.573z M67.25,28.656
					c-0.167-0.022-0.268-0.022-0.471-0.022c-0.186,0-1.291,0.04-2.147,0.327c-0.453,0.166-1.762,0.655-1.762,2.108
					c0,1.45,1.413,2.496,3.6,2.496c1.964,0,3.007-0.942,3.007-2.209C69.478,30.314,68.803,29.763,67.25,28.656z M67.839,24.769
					c0.473-0.472,0.514-1.124,0.514-1.495c0-1.472-0.877-3.763-2.578-3.763c-0.531,0-1.105,0.267-1.432,0.678
					c-0.346,0.426-0.449,0.979-0.449,1.511c0,1.37,0.799,3.643,2.557,3.643C66.964,25.342,67.515,25.092,67.839,24.769z"/>
				<path fill="#6FA850" d="M56.015,28.367c-3.252,0-4.993-2.533-4.993-4.826c0-2.679,2.188-4.972,5.299-4.972
					c3.008,0,4.892,2.355,4.892,4.828C61.214,25.812,59.352,28.367,56.015,28.367z M58.574,26.711
					c0.495-0.655,0.615-1.472,0.615-2.269c0-1.802-0.859-5.239-3.396-5.239c-0.675,0-1.355,0.264-1.844,0.695
					c-0.799,0.716-0.942,1.615-0.942,2.498c0,2.021,0.999,5.356,3.479,5.356C57.286,27.752,58.102,27.365,58.574,26.711z"/>
				<path fill="#6FA850" d="M45.126,28.367c-3.253,0-4.99-2.533-4.99-4.826c0-2.679,2.188-4.972,5.299-4.972
					c3.006,0,4.888,2.355,4.888,4.828C50.322,25.812,48.463,28.367,45.126,28.367z M47.685,26.711
					c0.491-0.655,0.614-1.472,0.614-2.269c0-1.802-0.861-5.239-3.396-5.239c-0.677,0-1.35,0.264-1.841,0.695
					c-0.8,0.716-0.942,1.615-0.942,2.498c0,2.021,1.003,5.356,3.479,5.356C46.398,27.752,47.213,27.365,47.685,26.711z"/>
				<path fill="#6FA850" d="M38.836,27.657l-2.743,0.628c-1.111,0.175-2.109,0.33-3.166,0.33c-5.291,0-7.307-3.895-7.307-6.942
					c0-3.723,2.856-7.173,7.748-7.173c1.035,0,2.031,0.152,2.938,0.399c1.438,0.404,2.109,0.902,2.53,1.194l-1.593,1.513
					l-0.672,0.15l0.479-0.764c-0.649-0.634-1.841-1.803-4.105-1.803c-3.026,0-5.31,2.3-5.31,5.659c0,3.607,2.607,7,6.787,7
					c1.228,0,1.861-0.247,2.435-0.477v-3.092l-2.896,0.156l1.535-0.825h4.064l-0.497,0.478c-0.135,0.114-0.152,0.153-0.19,0.306
					c-0.02,0.175-0.038,0.73-0.038,0.925L38.836,27.657L38.836,27.657z"/>
			</g>
			<g>
				<path fill="#6FA850" d="M90.248,26.816v5.212h-1.035V18.767h1.035v1.51c0.674-0.976,1.906-1.75,3.337-1.75
					c2.566,0,4.295,1.947,4.295,5.029c0,3.061-1.729,5.049-4.295,5.049C92.234,28.604,91.024,27.908,90.248,26.816z M96.768,23.555
					c0-2.323-1.211-4.095-3.358-4.095c-1.333,0-2.608,1.048-3.163,1.961v4.245c0.554,0.916,1.829,2.001,3.163,2.001
					C95.558,27.669,96.768,25.882,96.768,23.555z"/>
				<path fill="#6FA850" d="M99.294,28.365V15.104h1.034v13.261H99.294z"/>
				<path fill="#6FA850" d="M111.942,31.17c0.221,0.098,0.598,0.159,0.839,0.159c0.633,0,1.073-0.259,1.47-1.174l0.755-1.71
					l-4.078-9.679h1.154l3.497,8.388l3.463-8.388h1.171l-4.973,11.71c-0.516,1.207-1.328,1.787-2.443,1.787
					c-0.335,0-0.775-0.06-1.034-0.139L111.942,31.17z"/>
				<path fill="#6FA850" d="M108.919,28.337c-0.069-0.333-0.121-0.626-0.159-0.871c-0.032-0.244-0.05-0.494-0.05-0.748
					c-0.355,0.521-0.858,0.954-1.5,1.296c-0.643,0.343-1.253,0.512-2.091,0.512c-1.008,0-1.79-0.248-2.35-0.751
					c-0.557-0.503-0.837-1.184-0.837-2.045c0-0.86,0.406-1.559,1.214-2.093c0.809-0.537,1.855-0.803,3.148-0.803h2.414v-1.193
					c0-0.687-0.235-1.227-0.702-1.619c-0.469-0.392-1.128-0.591-1.982-0.591c-0.78,0-1.413,0.181-1.895,0.534
					c-0.478,0.36-0.718,0.806-0.718,1.344h-1.059l-0.022-0.052c-0.039-0.725,0.293-1.361,0.999-1.91
					c0.702-0.549,1.622-0.825,2.754-0.825c1.128,0,2.041,0.272,2.73,0.814c0.688,0.537,1.033,1.312,1.033,2.326v4.736
					c0,0.34,0.016,0.668,0.059,0.989c0.044,0.321,0.113,0.641,0.206,0.95h-1.192V28.337z M105.245,27.583
					c0.879,0,1.511-0.196,2.157-0.585c0.641-0.387,1.077-0.891,1.307-1.501v-1.843h-2.425c-0.926,0-1.693,0.205-2.297,0.619
					c-0.605,0.412-0.911,0.911-0.911,1.492c0,0.547,0.194,0.985,0.58,1.317C104.043,27.417,104.572,27.583,105.245,27.583z"/>
			</g>
		</g>
		<g>
			<g>
				<path fill="#6FA850" d="M25.594,7.258c0-2.038,1.514-3.349,3.397-3.349c1.262,0,2.086,0.601,2.601,1.339L30.67,5.783
					c-0.349-0.486-0.961-0.864-1.679-0.864c-1.281,0-2.233,0.97-2.233,2.339c0,1.349,0.951,2.339,2.233,2.339
					c0.66,0,1.242-0.301,1.533-0.582V8.015h-1.941V7.015h3.067v2.416c-0.631,0.709-1.543,1.184-2.659,1.184
					C27.108,10.616,25.594,9.287,25.594,7.258z"/>
				<path fill="#6FA850" d="M33.055,10.49V4.016h4.435v1h-3.3v1.67h3.232v0.999H34.19V9.49h3.3v1H33.055z"/>
				<path fill="#6FA850" d="M40.632,10.49V5.016h-1.96v-1h5.056v1h-1.96v5.473L40.632,10.49L40.632,10.49z"/>
				<path fill="#6FA850" d="M47.675,10.49V4.016h1.135v6.474H47.675z"/>
				<path fill="#6FA850" d="M51.972,10.49V5.016h-1.96v-1h5.056v1h-1.96v5.473L51.972,10.49L51.972,10.49z"/>
				<path fill="#6FA850" d="M58.733,7.258c0-1.932,1.368-3.349,3.31-3.349c1.931,0,3.309,1.417,3.309,3.349
					s-1.378,3.348-3.309,3.348C60.101,10.606,58.733,9.19,58.733,7.258z M64.187,7.258c0-1.339-0.845-2.339-2.145-2.339
					c-1.31,0-2.145,0.999-2.145,2.339c0,1.329,0.835,2.339,2.145,2.339C63.343,9.597,64.187,8.587,64.187,7.258z"/>
				<path fill="#6FA850" d="M71.191,10.49L67.814,5.86v4.629h-1.135V4.016h1.165L71.153,8.5V4.016h1.136v6.474H71.191z"/>
			</g>
		</g>
	</g>
</g>
</svg>
