<?xml version="1.0" encoding="utf-8"?>
<!-- Generator: Adobe Illustrator 17.0.0, SVG Export Plug-In . SVG Version: 6.00 Build 0)  -->
<!DOCTYPE svg PUBLIC "-//W3C//DTD SVG 1.1//EN" "http://www.w3.org/Graphics/SVG/1.1/DTD/svg11.dtd">
<svg version="1.1" id="Layer_1" xmlns="http://www.w3.org/2000/svg" xmlns:xlink="http://www.w3.org/1999/xlink" x="0px" y="0px"
	 width="121.072px" height="38.333px" viewBox="0 0 121.072 38.333" enable-background="new 0 0 121.072 38.333"
	 xml:space="preserve">
<g>
	<g>
		<polygon fill="none" points="12.045,19.153 15.37,15.829 15.369,15.829 12.045,19.153 1.436,8.545 1.435,8.545 12.045,19.155 
			1.418,29.783 1.418,29.783 12.045,19.155 15.384,22.494 15.386,22.494 		"/>
		
			<linearGradient id="SVGID_1_" gradientUnits="userSpaceOnUse" x1="874.8196" y1="-241.6204" x2="860.8107" y2="-250.3878" gradientTransform="matrix(0.7071 0.7071 -0.7071 0.7071 -779.6258 -429.4351)">
			<stop  offset="0" style="stop-color:#E8E8E8"/>
			<stop  offset="0.3264" style="stop-color:#C4C4C4"/>
			<stop  offset="1" style="stop-color:#747474"/>
		</linearGradient>
		<path fill="url(#SVGID_1_)" d="M15.369,15.829L2.416,8.707C2.049,8.506,1.71,8.459,1.436,8.545l10.61,10.609L15.369,15.829z"/>
		
			<linearGradient id="SVGID_2_" gradientUnits="userSpaceOnUse" x1="866.6746" y1="-249.1097" x2="884.8377" y2="-244.3617" gradientTransform="matrix(0.7071 0.7071 -0.7071 0.7071 -779.6258 -429.4351)">
			<stop  offset="0" style="stop-color:#686868"/>
			<stop  offset="0.6721" style="stop-color:#BDBDBD"/>
			<stop  offset="1" style="stop-color:#E4E4E4"/>
		</linearGradient>
		<path fill="url(#SVGID_2_)" d="M15.386,22.494l4.421-2.431c0.897-0.495,0.897-1.3,0-1.793l-4.438-2.44l-3.324,3.324L15.386,22.494
			z"/>
		
			<linearGradient id="SVGID_3_" gradientUnits="userSpaceOnUse" x1="876.8145" y1="-234.9704" x2="857.1188" y2="-246.5582" gradientTransform="matrix(0.7071 0.7071 -0.7071 0.7071 -779.6258 -429.4351)">
			<stop  offset="0" style="stop-color:#CBCBCB"/>
			<stop  offset="0.4854" style="stop-color:#828282"/>
			<stop  offset="0.8349" style="stop-color:#525252"/>
		</linearGradient>
		<path fill="url(#SVGID_3_)" d="M1.435,8.545C1.041,8.668,0.786,9.067,0.786,9.67l0.002,18.991c0,0.596,0.247,0.99,0.63,1.121
			l10.627-10.627L1.435,8.545z"/>
		
			<linearGradient id="SVGID_4_" gradientUnits="userSpaceOnUse" x1="883.9648" y1="-244.1707" x2="871.8378" y2="-228.1939" gradientTransform="matrix(0.7071 0.7071 -0.7071 0.7071 -779.6258 -429.4351)">
			<stop  offset="0" style="stop-color:#797979"/>
			<stop  offset="0.3411" style="stop-color:#6F6F6F"/>
			<stop  offset="0.7935" style="stop-color:#646464"/>
			<stop  offset="1" style="stop-color:#606060"/>
		</linearGradient>
		<path fill="url(#SVGID_4_)" d="M1.418,29.783c0.276,0.093,0.622,0.05,0.997-0.157l12.969-7.132l-3.339-3.339L1.418,29.783z"/>
	</g>
	<g>
		<g>
			<g>
				<path fill="#8D8D8D" d="M84.378,26.738l-0.98,0.924c-0.226,0.124-0.451,0.269-0.676,0.372c-0.681,0.309-1.373,0.387-1.988,0.387
					c-0.654,0-1.68-0.042-2.726-0.799c-1.454-1.025-2.09-2.785-2.09-4.319c0-3.176,2.585-4.734,4.694-4.734
					c0.738,0,1.495,0.185,2.11,0.574c1.024,0.676,1.288,1.556,1.435,2.028l-4.816,1.946l-1.577,0.123
					c0.511,2.604,2.272,4.118,4.219,4.118c0.973,0,1.694-0.317,2.357-0.645C84.341,26.712,84.474,26.643,84.378,26.738z
					 M81.473,21.557c0.392-0.142,0.594-0.265,0.594-0.55c0-0.818-0.926-1.763-2.031-1.763c-0.819,0-2.355,0.637-2.355,2.85
					c0,0.345,0.041,0.713,0.062,1.081L81.473,21.557z"/>
				<path fill="#8D8D8D" d="M74.309,26.579c0,0.796,0.142,0.92,0.815,0.982c0.351,0.041,0.701,0.06,1.047,0.101l-0.758,0.451h-3.61
					c0.474-0.614,0.555-0.675,0.555-1.085v-0.457l-0.008-12.18h-1.594l1.534-0.739h2.93c-0.635,0.368-0.824,0.592-0.906,1.308
					L74.309,26.579z"/>
				<path fill="#8D8D8D" d="M68.711,19.574c0.47,0.387,1.452,1.207,1.452,2.764c0,1.517-0.855,2.232-1.718,2.909
					c-0.265,0.266-0.574,0.555-0.574,1.002c0,0.453,0.31,0.699,0.532,0.882l0.74,0.571c0.9,0.759,1.72,1.456,1.72,2.87
					c0,1.927-1.865,3.87-5.389,3.87c-2.969,0-4.404-1.413-4.404-2.929c0-0.738,0.367-1.783,1.579-2.498
					c1.27-0.776,2.991-0.88,3.912-0.941c-0.288-0.372-0.616-0.761-0.616-1.396c0-0.347,0.104-0.554,0.205-0.798
					c-0.224,0.021-0.45,0.043-0.655,0.043c-2.173,0-3.401-1.621-3.401-3.219c0-0.942,0.43-1.987,1.312-2.745
					c1.168-0.962,2.561-1.127,3.667-1.127h4.222l-1.312,0.741L68.711,19.574L68.711,19.574z M67.259,28.668
					c-0.168-0.022-0.268-0.022-0.471-0.022c-0.186,0-1.292,0.04-2.15,0.328c-0.453,0.166-1.764,0.656-1.764,2.111
					c0,1.452,1.415,2.499,3.605,2.499c1.966,0,3.011-0.943,3.011-2.212C69.489,30.327,68.813,29.776,67.259,28.668z M67.848,24.775
					c0.474-0.472,0.515-1.125,0.515-1.497c0-1.473-0.878-3.768-2.581-3.768c-0.531,0-1.107,0.267-1.433,0.679
					c-0.346,0.427-0.45,0.98-0.45,1.513c0,1.372,0.8,3.647,2.56,3.647C66.971,25.349,67.524,25.1,67.848,24.775z"/>
				<path fill="#8D8D8D" d="M56.01,28.378c-3.256,0-4.999-2.536-4.999-4.832c0-2.683,2.19-4.978,5.306-4.978
					c3.012,0,4.898,2.358,4.898,4.833C61.215,25.82,59.35,28.378,56.01,28.378z M58.572,26.721c0.495-0.656,0.616-1.474,0.616-2.272
					c0-1.804-0.86-5.245-3.4-5.245c-0.676,0-1.356,0.264-1.847,0.696c-0.8,0.717-0.943,1.617-0.943,2.501
					c0,2.024,1,5.362,3.483,5.362C57.282,27.763,58.099,27.375,58.572,26.721z"/>
				<path fill="#8D8D8D" d="M45.107,28.378c-3.257,0-4.996-2.536-4.996-4.832c0-2.683,2.191-4.978,5.305-4.978
					c3.01,0,4.894,2.358,4.894,4.833C50.31,25.82,48.449,28.378,45.107,28.378z M47.67,26.721c0.492-0.656,0.614-1.474,0.614-2.272
					c0-1.804-0.862-5.245-3.4-5.245c-0.678,0-1.351,0.264-1.843,0.696c-0.801,0.717-0.943,1.617-0.943,2.501
					c0,2.024,1.004,5.362,3.483,5.362C46.38,27.763,47.196,27.375,47.67,26.721z"/>
				<path fill="#8D8D8D" d="M38.809,27.668l-2.746,0.628c-1.113,0.175-2.112,0.33-3.17,0.33c-5.298,0-7.316-3.9-7.316-6.951
					c0-3.727,2.86-7.182,7.757-7.182c1.036,0,2.034,0.152,2.942,0.399c1.439,0.405,2.112,0.903,2.533,1.195l-1.595,1.515
					l-0.673,0.151l0.48-0.765c-0.65-0.634-1.844-1.805-4.11-1.805c-3.03,0-5.316,2.303-5.316,5.666c0,3.611,2.61,7.009,6.795,7.009
					c1.23,0,1.863-0.247,2.438-0.478v-3.096l-2.899,0.156l1.537-0.826h4.069l-0.497,0.479c-0.135,0.114-0.152,0.153-0.19,0.306
					c-0.02,0.175-0.038,0.731-0.038,0.926L38.809,27.668L38.809,27.668z"/>
			</g>
			<g>
				<path fill="#8D8D8D" d="M90.284,26.825v5.218h-1.036V18.766h1.036v1.512c0.674-0.977,1.908-1.752,3.341-1.752
					c2.569,0,4.3,1.949,4.3,5.035c0,3.065-1.731,5.055-4.3,5.055C92.272,28.616,91.061,27.919,90.284,26.825z M96.812,23.561
					c0-2.326-1.212-4.1-3.362-4.1c-1.335,0-2.612,1.05-3.166,1.964v4.25c0.555,0.917,1.832,2.004,3.166,2.004
					C95.6,27.679,96.812,25.89,96.812,23.561z"/>
				<path fill="#8D8D8D" d="M99.341,28.377V15.099h1.036v13.277H99.341z"/>
				<path fill="#8D8D8D" d="M112.004,31.184c0.221,0.098,0.599,0.16,0.84,0.16c0.634,0,1.075-0.259,1.472-1.175l0.756-1.712
					l-4.083-9.691h1.156l3.502,8.398l3.468-8.398h1.172l-4.979,11.724c-0.517,1.208-1.329,1.789-2.446,1.789
					c-0.335,0-0.776-0.06-1.036-0.139L112.004,31.184z"/>
				<path fill="#8D8D8D" d="M108.977,28.348c-0.069-0.333-0.121-0.626-0.16-0.872c-0.032-0.245-0.05-0.495-0.05-0.749
					c-0.356,0.521-0.859,0.956-1.502,1.298c-0.643,0.344-1.254,0.513-2.093,0.513c-1.01,0-1.793-0.248-2.352-0.752
					c-0.557-0.503-0.838-1.185-0.838-2.048c0-0.861,0.406-1.561,1.216-2.096c0.81-0.537,1.857-0.804,3.152-0.804h2.417v-1.195
					c0-0.688-0.235-1.228-0.702-1.621c-0.47-0.392-1.129-0.591-1.984-0.591c-0.781,0-1.415,0.182-1.898,0.535
					c-0.478,0.361-0.719,0.807-0.719,1.346h-1.061l-0.022-0.052c-0.039-0.725,0.294-1.363,1-1.912
					c0.702-0.549,1.624-0.826,2.757-0.826c1.129,0,2.043,0.272,2.733,0.815c0.688,0.537,1.034,1.314,1.034,2.329v4.742
					c0,0.34,0.016,0.669,0.059,0.99c0.044,0.321,0.114,0.642,0.206,0.951h-1.193L108.977,28.348L108.977,28.348z M105.3,27.593
					c0.88,0,1.513-0.197,2.16-0.586c0.642-0.387,1.079-0.892,1.308-1.502v-1.845h-2.428c-0.928,0-1.696,0.205-2.3,0.62
					c-0.605,0.413-0.912,0.912-0.912,1.493c0,0.548,0.194,0.986,0.581,1.319C104.096,27.427,104.625,27.593,105.3,27.593z"/>
			</g>
		</g>
		<g>
			<g>
				<path fill="#8D8D8D" d="M25.551,7.243c0-2.04,1.516-3.353,3.401-3.353c1.263,0,2.089,0.602,2.604,1.341l-0.923,0.535
					c-0.35-0.486-0.962-0.865-1.681-0.865c-1.282,0-2.235,0.971-2.235,2.341c0,1.351,0.952,2.341,2.235,2.341
					c0.661,0,1.244-0.301,1.535-0.583v-1h-1.943v-1h3.071V9.42c-0.631,0.71-1.545,1.186-2.663,1.186
					C27.067,10.605,25.551,9.275,25.551,7.243z"/>
				<path fill="#8D8D8D" d="M33.021,10.479V3.997h4.441v1.001h-3.304V6.67h3.236v1h-3.236v1.807h3.304v1.001H33.021z"/>
				<path fill="#8D8D8D" d="M40.608,10.479v-5.48h-1.963V3.997h5.062v1.001h-1.962v5.48L40.608,10.479L40.608,10.479z"/>
				<path fill="#8D8D8D" d="M47.659,10.479V3.997h1.136v6.482H47.659z"/>
				<path fill="#8D8D8D" d="M51.962,10.479v-5.48h-1.963V3.997h5.062v1.001h-1.962v5.48L51.962,10.479L51.962,10.479z"/>
				<path fill="#8D8D8D" d="M58.731,7.243c0-1.934,1.37-3.353,3.314-3.353c1.934,0,3.313,1.419,3.313,3.353s-1.38,3.352-3.313,3.352
					C60.101,10.596,58.731,9.178,58.731,7.243z M64.192,7.243c0-1.341-0.846-2.341-2.147-2.341c-1.312,0-2.148,1-2.148,2.341
					c0,1.331,0.836,2.341,2.148,2.341C63.347,9.585,64.192,8.574,64.192,7.243z"/>
				<path fill="#8D8D8D" d="M71.204,10.479l-3.381-4.635v4.635h-1.136V3.997h1.166l3.313,4.489V3.997h1.137v6.482H71.204z"/>
			</g>
		</g>
	</g>
</g>
</svg>
